{
	"asset":{
		"generator":"Khronos glTF Blender I/O v4.0.44",
		"version":"2.0"
	},
	"extensionsUsed":[
		"KHR_materials_specular",
		"KHR_materials_ior"
	],
	"scene":0,
	"scenes":[
		{
			"name":"Scene",
			"nodes":[
				0
			]
		}
	],
	"nodes":[
		{
			"mesh":0,
			"name":"Whale_Plane",
			"rotation":[
				0.7071068286895752,
				0,
				0,
				0.7071068286895752
			]
		}
	],
	"materials":[
		{
			"doubleSided":true,
			"name":"White",
			"pbrMetallicRoughness":{
				"baseColorFactor":[
					0.30005401372909546,
					0.6675450205802917,
					0.800000011920929,
					1
				],
				"metallicFactor":0,
				"roughnessFactor":0.525658369064331
			}
		},
		{
			"doubleSided":true,
			"extensions":{
				"KHR_materials_specular":{
					"specularFactor":0.9885719418525696
				},
				"KHR_materials_ior":{
					"ior":1.4500000476837158
				}
			},
			"name":"Blue",
			"pbrMetallicRoughness":{
				"baseColorFactor":[
					0.025756999850273132,
					0.09809400141239166,
					0.3560509979724884,
					1
				],
				"metallicFactor":0,
				"roughnessFactor":0.525658369064331
			}
		},
		{
			"doubleSided":true,
			"name":"Black",
			"pbrMetallicRoughness":{
				"baseColorFactor":[
					0,
					0,
					0,
					1
				],
				"metallicFactor":0.3714289963245392,
				"roughnessFactor":0.525658369064331
			}
		}
	],
	"meshes":[
		{
			"name":"Whale_Plane",
			"primitives":[
				{
					"attributes":{
						"POSITION":0,
						"NORMAL":1,
						"TEXCOORD_0":2
					},
					"indices":3,
					"material":0
				},
				{
					"attributes":{
						"POSITION":4,
						"NORMAL":5,
						"TEXCOORD_0":6
					},
					"indices":7,
					"material":1
				},
				{
					"attributes":{
						"POSITION":8,
						"NORMAL":9,
						"TEXCOORD_0":10
					},
					"indices":11,
					"material":2
				}
			]
		}
	],
	"accessors":[
		{
			"bufferView":0,
			"componentType":5126,
			"count":1133,
			"max":[
				2.8341519832611084,
				0.8417270183563232,
				0.8638820052146912
			],
			"min":[
				-1.8803809881210327,
				-0.8417270183563232,
				-0.16102400422096252
			],
			"type":"VEC3"
		},
		{
			"bufferView":1,
			"componentType":5126,
			"count":1133,
			"type":"VEC3"
		},
		{
			"bufferView":2,
			"componentType":5126,
			"count":1133,
			"type":"VEC2"
		},
		{
			"bufferView":3,
			"componentType":5123,
			"count":1146,
			"type":"SCALAR"
		},
		{
			"bufferView":4,
			"componentType":5126,
			"count":1668,
			"max":[
				2.8341519832611084,
				0.8571419715881348,
				0.8638820052146912
			],
			"min":[
				-1.8394440412521362,
				-0.8571419715881348,
				-0.419064998626709
			],
			"type":"VEC3"
		},
		{
			"bufferView":5,
			"componentType":5126,
			"count":1668,
			"type":"VEC3"
		},
		{
			"bufferView":6,
			"componentType":5126,
			"count":1668,
			"type":"VEC2"
		},
		{
			"bufferView":7,
			"componentType":5123,
			"count":1668,
			"type":"SCALAR"
		},
		{
			"bufferView":8,
			"componentType":5126,
			"count":108,
			"max":[
				-0.9039790034294128,
				0.377362996339798,
				0.03971099853515625
			],
			"min":[
				-0.9377959966659546,
				-0.377362996339798,
				0.003932000137865543
			],
			"type":"VEC3"
		},
		{
			"bufferView":9,
			"componentType":5126,
			"count":108,
			"type":"VEC3"
		},
		{
			"bufferView":10,
			"componentType":5126,
			"count":108,
			"type":"VEC2"
		},
		{
			"bufferView":11,
			"componentType":5123,
			"count":108,
			"type":"SCALAR"
		}
	],
	"bufferViews":[
		{
			"buffer":0,
			"byteLength":13596,
			"byteOffset":0,
			"target":34962
		},
		{
			"buffer":0,
			"byteLength":13596,
			"byteOffset":13596,
			"target":34962
		},
		{
			"buffer":0,
			"byteLength":9064,
			"byteOffset":27192,
			"target":34962
		},
		{
			"buffer":0,
			"byteLength":2292,
			"byteOffset":36256,
			"target":34963
		},
		{
			"buffer":0,
			"byteLength":20016,
			"byteOffset":38548,
			"target":34962
		},
		{
			"buffer":0,
			"byteLength":20016,
			"byteOffset":58564,
			"target":34962
		},
		{
			"buffer":0,
			"byteLength":13344,
			"byteOffset":78580,
			"target":34962
		},
		{
			"buffer":0,
			"byteLength":3336,
			"byteOffset":91924,
			"target":34963
		},
		{
			"buffer":0,
			"byteLength":1296,
			"byteOffset":95260,
			"target":34962
		},
		{
			"buffer":0,
			"byteLength":1296,
			"byteOffset":96556,
			"target":34962
		},
		{
			"buffer":0,
			"byteLength":864,
			"byteOffset":97852,
			"target":34962
		},
		{
			"buffer":0,
			"byteLength":216,
			"byteOffset":98716,
			"target":34963
		}
	],
	"buffers":[
		{
			"byteLength":98932,
			"uri":"balena.bin"
		}
	]
}
