{
	"asset":{
		"generator":"Khronos glTF Blender I/O v4.0.44",
		"version":"2.0"
	},
	"scene":0,
	"scenes":[
		{
			"name":"Scene",
			"nodes":[
				0
			]
		}
	],
	"nodes":[
		{
			"mesh":0,
			"name":"Easter_Island_Head_Head_Low_Poly.001",
			"rotation":[
				0.5344643592834473,
				0.48203182220458984,
				-0.5123831033706665,
				0.4684620797634125
			],
			"scale":[
				3.393993854522705,
				3.393994092941284,
				3.393994092941284
			],
			"translation":[
				-22.74327850341797,
				-29.8681697845459,
				27.28304672241211
			]
		}
	],
	"materials":[
		{
			"doubleSided":true,
			"name":"Material.001",
			"pbrMetallicRoughness":{
				"baseColorTexture":{
					"index":0
				},
				"metallicFactor":0,
				"roughnessFactor":0.5
			}
		}
	],
	"meshes":[
		{
			"name":"Easter_Island_Head_Head_Low_Poly.001",
			"primitives":[
				{
					"attributes":{
						"POSITION":0,
						"NORMAL":1,
						"TEXCOORD_0":2
					},
					"indices":3,
					"material":0
				}
			]
		}
	],
	"textures":[
		{
			"sampler":0,
			"source":0
		}
	],
	"images":[
		{
			"mimeType":"image/jpeg",
			"name":"piatra",
			"uri":"piatra.jpg"
		}
	],
	"accessors":[
		{
			"bufferView":0,
			"componentType":5126,
			"count":10804,
			"max":[
				1.5824029445648193,
				2.0601561069488525,
				0.438850998878479
			],
			"min":[
				-1.5824029445648193,
				-1.1054580211639404,
				-6.278493881225586
			],
			"type":"VEC3"
		},
		{
			"bufferView":1,
			"componentType":5126,
			"count":10804,
			"type":"VEC3"
		},
		{
			"bufferView":2,
			"componentType":5126,
			"count":10804,
			"type":"VEC2"
		},
		{
			"bufferView":3,
			"componentType":5123,
			"count":61536,
			"type":"SCALAR"
		}
	],
	"bufferViews":[
		{
			"buffer":0,
			"byteLength":129648,
			"byteOffset":0,
			"target":34962
		},
		{
			"buffer":0,
			"byteLength":129648,
			"byteOffset":129648,
			"target":34962
		},
		{
			"buffer":0,
			"byteLength":86432,
			"byteOffset":259296,
			"target":34962
		},
		{
			"buffer":0,
			"byteLength":123072,
			"byteOffset":345728,
			"target":34963
		}
	],
	"samplers":[
		{
			"magFilter":9729,
			"minFilter":9987
		}
	],
	"buffers":[
		{
			"byteLength":468800,
			"uri":"piatra.bin"
		}
	]
}
