{
	"asset":{
		"generator":"Khronos glTF Blender I/O v4.0.44",
		"version":"2.0"
	},
	"scene":0,
	"scenes":[
		{
			"name":"Scene",
			"nodes":[
				0
			]
		}
	],
	"nodes":[
		{
			"mesh":0,
			"name":"submarin",
			"rotation":[
				0,
				0.7071068286895752,
				0.7071068286895752,
				3.090862321641907e-08
			],
			"scale":[
				1.6628228425979614,
				1.6628228425979614,
				1.6628228425979614
			],
			"translation":[
				-2.785249948501587,
				1.9049899578094482,
				-5.176257133483887
			]
		}
	],
	"materials":[
		{
			"doubleSided":true,
			"name":"textura_carlinga",
			"pbrMetallicRoughness":{
				"baseColorTexture":{
					"index":0
				},
				"metallicFactor":0,
				"roughnessFactor":0.5
			}
		},
		{
			"doubleSided":true,
			"name":"textura_picior_dr_fata",
			"pbrMetallicRoughness":{
				"baseColorTexture":{
					"index":1
				},
				"metallicFactor":0,
				"roughnessFactor":0.5
			}
		},
		{
			"doubleSided":true,
			"name":"textura_picior_st_fata",
			"pbrMetallicRoughness":{
				"baseColorTexture":{
					"index":2
				},
				"metallicFactor":0,
				"roughnessFactor":0.5
			}
		},
		{
			"doubleSided":true,
			"name":"textura_picior_dr_spate",
			"pbrMetallicRoughness":{
				"baseColorTexture":{
					"index":3
				},
				"metallicFactor":0,
				"roughnessFactor":0.5
			}
		},
		{
			"doubleSided":true,
			"name":"textura_picior_st_spate",
			"pbrMetallicRoughness":{
				"baseColorTexture":{
					"index":4
				},
				"metallicFactor":0,
				"roughnessFactor":0.5
			}
		},
		{
			"doubleSided":true,
			"name":"textura_pluta_dr",
			"pbrMetallicRoughness":{
				"baseColorTexture":{
					"index":5
				},
				"metallicFactor":0,
				"roughnessFactor":0.5
			}
		},
		{
			"doubleSided":true,
			"name":"textura_pluta_st",
			"pbrMetallicRoughness":{
				"baseColorTexture":{
					"index":6
				},
				"metallicFactor":0,
				"roughnessFactor":0.5
			}
		},
		{
			"doubleSided":true,
			"name":"Material",
			"pbrMetallicRoughness":{
				"baseColorFactor":[
					0.011587252840399742,
					0.013709751889109612,
					0.4981600046157837,
					1
				],
				"metallicFactor":0,
				"roughnessFactor":0.5
			}
		},
		{
			"doubleSided":true,
			"name":"textura_propulsoare",
			"pbrMetallicRoughness":{
				"baseColorTexture":{
					"index":7
				},
				"metallicFactor":0,
				"roughnessFactor":0.5
			}
		}
	],
	"meshes":[
		{
			"name":"Cube",
			"primitives":[
				{
					"attributes":{
						"POSITION":0,
						"NORMAL":1,
						"TEXCOORD_0":2
					},
					"indices":3,
					"material":0
				},
				{
					"attributes":{
						"POSITION":4,
						"NORMAL":5,
						"TEXCOORD_0":6
					},
					"indices":7,
					"material":1
				},
				{
					"attributes":{
						"POSITION":8,
						"NORMAL":9,
						"TEXCOORD_0":10
					},
					"indices":7,
					"material":2
				},
				{
					"attributes":{
						"POSITION":11,
						"NORMAL":12,
						"TEXCOORD_0":13
					},
					"indices":7,
					"material":3
				},
				{
					"attributes":{
						"POSITION":14,
						"NORMAL":15,
						"TEXCOORD_0":16
					},
					"indices":7,
					"material":4
				},
				{
					"attributes":{
						"POSITION":17,
						"NORMAL":18,
						"TEXCOORD_0":19
					},
					"indices":20,
					"material":5
				},
				{
					"attributes":{
						"POSITION":21,
						"NORMAL":22,
						"TEXCOORD_0":23
					},
					"indices":20,
					"material":6
				},
				{
					"attributes":{
						"POSITION":24,
						"NORMAL":25,
						"TEXCOORD_0":26
					},
					"indices":27,
					"material":7
				},
				{
					"attributes":{
						"POSITION":28,
						"NORMAL":29,
						"TEXCOORD_0":30
					},
					"indices":31,
					"material":8
				}
			]
		}
	],
	"textures":[
		{
			"sampler":0,
			"source":0
		},
		{
			"sampler":0,
			"source":0
		},
		{
			"sampler":0,
			"source":0
		},
		{
			"sampler":0,
			"source":0
		},
		{
			"sampler":0,
			"source":0
		},
		{
			"sampler":0,
			"source":0
		},
		{
			"sampler":0,
			"source":0
		},
		{
			"sampler":0,
			"source":0
		}
	],
	"images":[
		{
			"mimeType":"image/jpeg",
			"name":"grunge-wall-texture",
			"uri":"grunge-wall-texture.jpg"
		}
	],
	"accessors":[
		{
			"bufferView":0,
			"componentType":5126,
			"count":1081,
			"max":[
				0.9565638303756714,
				1.0298113822937012,
				0.32085487246513367
			],
			"min":[
				-2.715050220489502,
				-2.048201084136963,
				-1.9000749588012695
			],
			"type":"VEC3"
		},
		{
			"bufferView":1,
			"componentType":5126,
			"count":1081,
			"type":"VEC3"
		},
		{
			"bufferView":2,
			"componentType":5126,
			"count":1081,
			"type":"VEC2"
		},
		{
			"bufferView":3,
			"componentType":5123,
			"count":2844,
			"type":"SCALAR"
		},
		{
			"bufferView":4,
			"componentType":5126,
			"count":192,
			"max":[
				-1.6356884241104126,
				0.02497047185897827,
				-1.5858153104782104
			],
			"min":[
				-1.719882607460022,
				-0.059223711490631104,
				-2.1506245136260986
			],
			"type":"VEC3"
		},
		{
			"bufferView":5,
			"componentType":5126,
			"count":192,
			"type":"VEC3"
		},
		{
			"bufferView":6,
			"componentType":5126,
			"count":192,
			"type":"VEC2"
		},
		{
			"bufferView":7,
			"componentType":5123,
			"count":372,
			"type":"SCALAR"
		},
		{
			"bufferView":8,
			"componentType":5126,
			"count":192,
			"max":[
				-1.6356884241104126,
				-0.9601737260818481,
				-1.585815191268921
			],
			"min":[
				-1.719882607460022,
				-1.0443679094314575,
				-2.1506245136260986
			],
			"type":"VEC3"
		},
		{
			"bufferView":9,
			"componentType":5126,
			"count":192,
			"type":"VEC3"
		},
		{
			"bufferView":10,
			"componentType":5126,
			"count":192,
			"type":"VEC2"
		},
		{
			"bufferView":11,
			"componentType":5126,
			"count":192,
			"max":[
				-0.15797209739685059,
				0.02497047185897827,
				-1.5858154296875
			],
			"min":[
				-0.24216628074645996,
				-0.059223711490631104,
				-2.1506245136260986
			],
			"type":"VEC3"
		},
		{
			"bufferView":12,
			"componentType":5126,
			"count":192,
			"type":"VEC3"
		},
		{
			"bufferView":13,
			"componentType":5126,
			"count":192,
			"type":"VEC2"
		},
		{
			"bufferView":14,
			"componentType":5126,
			"count":192,
			"max":[
				-0.15797209739685059,
				-0.9601737260818481,
				-1.5858153104782104
			],
			"min":[
				-0.24216628074645996,
				-1.0443679094314575,
				-2.1506245136260986
			],
			"type":"VEC3"
		},
		{
			"bufferView":15,
			"componentType":5126,
			"count":192,
			"type":"VEC3"
		},
		{
			"bufferView":16,
			"componentType":5126,
			"count":192,
			"type":"VEC2"
		},
		{
			"bufferView":17,
			"componentType":5126,
			"count":192,
			"max":[
				0.4918220043182373,
				0.1899077296257019,
				-2.016982316970825
			],
			"min":[
				-2.286586046218872,
				-0.14686906337738037,
				-2.1538896560668945
			],
			"type":"VEC3"
		},
		{
			"bufferView":18,
			"componentType":5126,
			"count":192,
			"type":"VEC3"
		},
		{
			"bufferView":19,
			"componentType":5126,
			"count":192,
			"type":"VEC2"
		},
		{
			"bufferView":20,
			"componentType":5123,
			"count":372,
			"type":"SCALAR"
		},
		{
			"bufferView":21,
			"componentType":5126,
			"count":192,
			"max":[
				0.4671539068222046,
				-0.8805606365203857,
				-2.016982078552246
			],
			"min":[
				-2.3112540245056152,
				-1.2173374891281128,
				-2.1538894176483154
			],
			"type":"VEC3"
		},
		{
			"bufferView":22,
			"componentType":5126,
			"count":192,
			"type":"VEC3"
		},
		{
			"bufferView":23,
			"componentType":5126,
			"count":192,
			"type":"VEC2"
		},
		{
			"bufferView":24,
			"componentType":5126,
			"count":63,
			"max":[
				-2.549081802368164,
				-0.0792812705039978,
				-0.3849914073944092
			],
			"min":[
				-2.7632949352264404,
				-0.9513164758682251,
				-1.2995445728302002
			],
			"type":"VEC3"
		},
		{
			"bufferView":25,
			"componentType":5126,
			"count":63,
			"type":"VEC3"
		},
		{
			"bufferView":26,
			"componentType":5126,
			"count":63,
			"type":"VEC2"
		},
		{
			"bufferView":27,
			"componentType":5123,
			"count":288,
			"type":"SCALAR"
		},
		{
			"bufferView":28,
			"componentType":5126,
			"count":1452,
			"max":[
				-0.3675692677497864,
				1.4438352584838867,
				-0.5530509948730469
			],
			"min":[
				-0.5219689607620239,
				-2.461480140686035,
				-1.4444183111190796
			],
			"type":"VEC3"
		},
		{
			"bufferView":29,
			"componentType":5126,
			"count":1452,
			"type":"VEC3"
		},
		{
			"bufferView":30,
			"componentType":5126,
			"count":1452,
			"type":"VEC2"
		},
		{
			"bufferView":31,
			"componentType":5123,
			"count":2208,
			"type":"SCALAR"
		}
	],
	"bufferViews":[
		{
			"buffer":0,
			"byteLength":12972,
			"byteOffset":0,
			"target":34962
		},
		{
			"buffer":0,
			"byteLength":12972,
			"byteOffset":12972,
			"target":34962
		},
		{
			"buffer":0,
			"byteLength":8648,
			"byteOffset":25944,
			"target":34962
		},
		{
			"buffer":0,
			"byteLength":5688,
			"byteOffset":34592,
			"target":34963
		},
		{
			"buffer":0,
			"byteLength":2304,
			"byteOffset":40280,
			"target":34962
		},
		{
			"buffer":0,
			"byteLength":2304,
			"byteOffset":42584,
			"target":34962
		},
		{
			"buffer":0,
			"byteLength":1536,
			"byteOffset":44888,
			"target":34962
		},
		{
			"buffer":0,
			"byteLength":744,
			"byteOffset":46424,
			"target":34963
		},
		{
			"buffer":0,
			"byteLength":2304,
			"byteOffset":47168,
			"target":34962
		},
		{
			"buffer":0,
			"byteLength":2304,
			"byteOffset":49472,
			"target":34962
		},
		{
			"buffer":0,
			"byteLength":1536,
			"byteOffset":51776,
			"target":34962
		},
		{
			"buffer":0,
			"byteLength":2304,
			"byteOffset":53312,
			"target":34962
		},
		{
			"buffer":0,
			"byteLength":2304,
			"byteOffset":55616,
			"target":34962
		},
		{
			"buffer":0,
			"byteLength":1536,
			"byteOffset":57920,
			"target":34962
		},
		{
			"buffer":0,
			"byteLength":2304,
			"byteOffset":59456,
			"target":34962
		},
		{
			"buffer":0,
			"byteLength":2304,
			"byteOffset":61760,
			"target":34962
		},
		{
			"buffer":0,
			"byteLength":1536,
			"byteOffset":64064,
			"target":34962
		},
		{
			"buffer":0,
			"byteLength":2304,
			"byteOffset":65600,
			"target":34962
		},
		{
			"buffer":0,
			"byteLength":2304,
			"byteOffset":67904,
			"target":34962
		},
		{
			"buffer":0,
			"byteLength":1536,
			"byteOffset":70208,
			"target":34962
		},
		{
			"buffer":0,
			"byteLength":744,
			"byteOffset":71744,
			"target":34963
		},
		{
			"buffer":0,
			"byteLength":2304,
			"byteOffset":72488,
			"target":34962
		},
		{
			"buffer":0,
			"byteLength":2304,
			"byteOffset":74792,
			"target":34962
		},
		{
			"buffer":0,
			"byteLength":1536,
			"byteOffset":77096,
			"target":34962
		},
		{
			"buffer":0,
			"byteLength":756,
			"byteOffset":78632,
			"target":34962
		},
		{
			"buffer":0,
			"byteLength":756,
			"byteOffset":79388,
			"target":34962
		},
		{
			"buffer":0,
			"byteLength":504,
			"byteOffset":80144,
			"target":34962
		},
		{
			"buffer":0,
			"byteLength":576,
			"byteOffset":80648,
			"target":34963
		},
		{
			"buffer":0,
			"byteLength":17424,
			"byteOffset":81224,
			"target":34962
		},
		{
			"buffer":0,
			"byteLength":17424,
			"byteOffset":98648,
			"target":34962
		},
		{
			"buffer":0,
			"byteLength":11616,
			"byteOffset":116072,
			"target":34962
		},
		{
			"buffer":0,
			"byteLength":4416,
			"byteOffset":127688,
			"target":34963
		}
	],
	"samplers":[
		{
			"magFilter":9729,
			"minFilter":9987
		}
	],
	"buffers":[
		{
			"byteLength":132104,
			"uri":"submarinMetal.bin"
		}
	]
}
