{
	"asset":{
		"generator":"Khronos glTF Blender I/O v4.0.44",
		"version":"2.0"
	},
	"scene":0,
	"scenes":[
		{
			"name":"Scene",
			"nodes":[
				0,
				1,
				2,
				3,
				4,
				5,
				6,
				7,
				8,
				9,
				10,
				11,
				12,
				13,
				14,
				15
			]
		}
	],
	"nodes":[
		{
			"mesh":0,
			"name":"08_low",
			"translation":[
				0,
				2.2832584381103516,
				0.1243438720703125
			]
		},
		{
			"mesh":1,
			"name":"16_low",
			"translation":[
				0.11123800277709961,
				0,
				-10.048072814941406
			]
		},
		{
			"mesh":2,
			"name":"01_low",
			"translation":[
				0.0556187629699707,
				0.09633493423461914,
				-10.048072814941406
			]
		},
		{
			"mesh":3,
			"name":"12_low",
			"translation":[
				-0.055619001388549805,
				0.09633492678403854,
				-10.048072814941406
			]
		},
		{
			"mesh":4,
			"name":"13_low",
			"translation":[
				-0.11123800277709961,
				0,
				-10.048072814941406
			]
		},
		{
			"mesh":5,
			"name":"14_low",
			"translation":[
				-0.055619001388549805,
				-0.09633496403694153,
				-10.048072814941406
			]
		},
		{
			"mesh":6,
			"name":"15_low",
			"translation":[
				0.055619239807128906,
				-0.09633494168519974,
				-10.048072814941406
			]
		},
		{
			"mesh":7,
			"name":"02_low",
			"translation":[
				0,
				0,
				-1.6863389015197754
			]
		},
		{
			"mesh":8,
			"name":"09_low",
			"translation":[
				0,
				0,
				-2.1315035820007324
			]
		},
		{
			"mesh":9,
			"name":"10_low",
			"translation":[
				0,
				0,
				-9.884675979614258
			]
		},
		{
			"mesh":10,
			"name":"11_low",
			"translation":[
				0,
				0,
				-2.1311912536621094
			]
		},
		{
			"mesh":11,
			"name":"04_low",
			"translation":[
				0,
				3.51396107673645,
				1.5008087158203125
			]
		},
		{
			"mesh":12,
			"name":"05_low",
			"translation":[
				0,
				3.51396107673645,
				0.9142947196960449
			]
		},
		{
			"mesh":13,
			"name":"06_low",
			"translation":[
				0,
				2.29396653175354,
				0.14780807495117188
			]
		},
		{
			"mesh":14,
			"name":"07_low",
			"translation":[
				0,
				2.2832584381103516,
				0.1243438720703125
			]
		},
		{
			"mesh":15,
			"name":"03_low",
			"translation":[
				0,
				-0.000277201907010749,
				-1.6863389015197754
			]
		}
	],
	"materials":[
		{
			"doubleSided":true,
			"name":"Material",
			"pbrMetallicRoughness":{}
		}
	],
	"meshes":[
		{
			"name":"08_low",
			"primitives":[
				{
					"attributes":{
						"POSITION":0,
						"NORMAL":1,
						"TEXCOORD_0":2
					},
					"indices":3,
					"material":0
				}
			]
		},
		{
			"name":"16_low",
			"primitives":[
				{
					"attributes":{
						"POSITION":4,
						"NORMAL":5,
						"TEXCOORD_0":6
					},
					"indices":7,
					"material":0
				}
			]
		},
		{
			"name":"01_low",
			"primitives":[
				{
					"attributes":{
						"POSITION":8,
						"NORMAL":9,
						"TEXCOORD_0":10
					},
					"indices":11,
					"material":0
				}
			]
		},
		{
			"name":"12_low",
			"primitives":[
				{
					"attributes":{
						"POSITION":12,
						"NORMAL":13,
						"TEXCOORD_0":14
					},
					"indices":15,
					"material":0
				}
			]
		},
		{
			"name":"13_low",
			"primitives":[
				{
					"attributes":{
						"POSITION":16,
						"NORMAL":17,
						"TEXCOORD_0":18
					},
					"indices":19,
					"material":0
				}
			]
		},
		{
			"name":"14_low",
			"primitives":[
				{
					"attributes":{
						"POSITION":20,
						"NORMAL":21,
						"TEXCOORD_0":22
					},
					"indices":23,
					"material":0
				}
			]
		},
		{
			"name":"15_low",
			"primitives":[
				{
					"attributes":{
						"POSITION":24,
						"NORMAL":25,
						"TEXCOORD_0":26
					},
					"indices":27,
					"material":0
				}
			]
		},
		{
			"name":"02_low",
			"primitives":[
				{
					"attributes":{
						"POSITION":28,
						"NORMAL":29,
						"TEXCOORD_0":30
					},
					"indices":31,
					"material":0
				}
			]
		},
		{
			"name":"09_low",
			"primitives":[
				{
					"attributes":{
						"POSITION":32,
						"NORMAL":33,
						"TEXCOORD_0":34
					},
					"indices":35,
					"material":0
				}
			]
		},
		{
			"name":"10_low",
			"primitives":[
				{
					"attributes":{
						"POSITION":36,
						"NORMAL":37,
						"TEXCOORD_0":38
					},
					"indices":39,
					"material":0
				}
			]
		},
		{
			"name":"11_low",
			"primitives":[
				{
					"attributes":{
						"POSITION":40,
						"NORMAL":41,
						"TEXCOORD_0":42
					},
					"indices":43,
					"material":0
				}
			]
		},
		{
			"name":"04_low",
			"primitives":[
				{
					"attributes":{
						"POSITION":44,
						"NORMAL":45,
						"TEXCOORD_0":46
					},
					"indices":47,
					"material":0
				}
			]
		},
		{
			"name":"05_low",
			"primitives":[
				{
					"attributes":{
						"POSITION":48,
						"NORMAL":49,
						"TEXCOORD_0":50
					},
					"indices":51,
					"material":0
				}
			]
		},
		{
			"name":"06_low",
			"primitives":[
				{
					"attributes":{
						"POSITION":52,
						"NORMAL":53,
						"TEXCOORD_0":54
					},
					"indices":55,
					"material":0
				}
			]
		},
		{
			"name":"07_low",
			"primitives":[
				{
					"attributes":{
						"POSITION":56,
						"NORMAL":57,
						"TEXCOORD_0":58
					},
					"indices":59,
					"material":0
				}
			]
		},
		{
			"name":"03_low",
			"primitives":[
				{
					"attributes":{
						"POSITION":60,
						"NORMAL":61,
						"TEXCOORD_0":62
					},
					"indices":63,
					"material":0
				}
			]
		}
	],
	"accessors":[
		{
			"bufferView":0,
			"componentType":5126,
			"count":149,
			"max":[
				0.005798188503831625,
				0.0060868519358336926,
				0.01637105457484722
			],
			"min":[
				-0.005798188503831625,
				-0.006094563286751509,
				-0.006189580075442791
			],
			"type":"VEC3"
		},
		{
			"bufferView":1,
			"componentType":5126,
			"count":149,
			"type":"VEC3"
		},
		{
			"bufferView":2,
			"componentType":5126,
			"count":149,
			"type":"VEC2"
		},
		{
			"bufferView":3,
			"componentType":5123,
			"count":432,
			"type":"SCALAR"
		},
		{
			"bufferView":4,
			"componentType":5126,
			"count":114,
			"max":[
				0.02682408317923546,
				0.030973779037594795,
				3.2343439038129418e-09
			],
			"min":[
				-0.02682408317923546,
				-0.030973786488175392,
				-0.022588025778532028
			],
			"type":"VEC3"
		},
		{
			"bufferView":5,
			"componentType":5126,
			"count":114,
			"type":"VEC3"
		},
		{
			"bufferView":6,
			"componentType":5126,
			"count":114,
			"type":"VEC2"
		},
		{
			"bufferView":7,
			"componentType":5123,
			"count":372,
			"type":"SCALAR"
		},
		{
			"bufferView":8,
			"componentType":5126,
			"count":114,
			"max":[
				0.026824090629816055,
				0.030973784625530243,
				6.5408354288365445e-09
			],
			"min":[
				-0.02682408317923546,
				-0.030973782762885094,
				-0.022588029503822327
			],
			"type":"VEC3"
		},
		{
			"bufferView":9,
			"componentType":5126,
			"count":114,
			"type":"VEC3"
		},
		{
			"bufferView":10,
			"componentType":5126,
			"count":114,
			"type":"VEC2"
		},
		{
			"bufferView":11,
			"componentType":5123,
			"count":372,
			"type":"SCALAR"
		},
		{
			"bufferView":12,
			"componentType":5126,
			"count":114,
			"max":[
				0.026824090629816055,
				0.030973786488175392,
				9.471451178910684e-09
			],
			"min":[
				-0.02682408317923546,
				-0.030973780900239944,
				-0.022588031366467476
			],
			"type":"VEC3"
		},
		{
			"bufferView":13,
			"componentType":5126,
			"count":114,
			"type":"VEC3"
		},
		{
			"bufferView":14,
			"componentType":5126,
			"count":114,
			"type":"VEC2"
		},
		{
			"bufferView":15,
			"componentType":5123,
			"count":372,
			"type":"SCALAR"
		},
		{
			"bufferView":16,
			"componentType":5126,
			"count":114,
			"max":[
				0.026824086904525757,
				0.03097379207611084,
				1.1542159228383753e-08
			],
			"min":[
				-0.026824088767170906,
				-0.030973779037594795,
				-0.022588033229112625
			],
			"type":"VEC3"
		},
		{
			"bufferView":17,
			"componentType":5126,
			"count":114,
			"type":"VEC3"
		},
		{
			"bufferView":18,
			"componentType":5126,
			"count":114,
			"type":"VEC2"
		},
		{
			"bufferView":19,
			"componentType":5123,
			"count":372,
			"type":"SCALAR"
		},
		{
			"bufferView":20,
			"componentType":5126,
			"count":114,
			"max":[
				0.026824090629816055,
				0.03097378835082054,
				9.458956284902342e-09
			],
			"min":[
				-0.026824098080396652,
				-0.030973782762885094,
				-0.022588031366467476
			],
			"type":"VEC3"
		},
		{
			"bufferView":21,
			"componentType":5126,
			"count":114,
			"type":"VEC3"
		},
		{
			"bufferView":22,
			"componentType":5126,
			"count":114,
			"type":"VEC2"
		},
		{
			"bufferView":23,
			"componentType":5123,
			"count":372,
			"type":"SCALAR"
		},
		{
			"bufferView":24,
			"componentType":5126,
			"count":114,
			"max":[
				0.026824094355106354,
				0.030973782762885094,
				5.305047956483122e-09
			],
			"min":[
				-0.02682410180568695,
				-0.030973782762885094,
				-0.022588027641177177
			],
			"type":"VEC3"
		},
		{
			"bufferView":25,
			"componentType":5126,
			"count":114,
			"type":"VEC3"
		},
		{
			"bufferView":26,
			"componentType":5126,
			"count":114,
			"type":"VEC2"
		},
		{
			"bufferView":27,
			"componentType":5123,
			"count":372,
			"type":"SCALAR"
		},
		{
			"bufferView":28,
			"componentType":5126,
			"count":5252,
			"max":[
				1.821117877960205,
				3.5139613151550293,
				10.350281715393066
			],
			"min":[
				-1.821117877960205,
				-1.8196327686309814,
				-7.88953161239624
			],
			"type":"VEC3"
		},
		{
			"bufferView":29,
			"componentType":5126,
			"count":5252,
			"type":"VEC3"
		},
		{
			"bufferView":30,
			"componentType":5126,
			"count":5252,
			"type":"VEC2"
		},
		{
			"bufferView":31,
			"componentType":5123,
			"count":27516,
			"type":"SCALAR"
		},
		{
			"bufferView":32,
			"componentType":5126,
			"count":247,
			"max":[
				0.2154732644557953,
				0.2154732495546341,
				-7.010751724243164
			],
			"min":[
				-0.2154732644557953,
				-0.21547327935695648,
				-7.924778461456299
			],
			"type":"VEC3"
		},
		{
			"bufferView":33,
			"componentType":5126,
			"count":247,
			"type":"VEC3"
		},
		{
			"bufferView":34,
			"componentType":5126,
			"count":247,
			"type":"VEC2"
		},
		{
			"bufferView":35,
			"componentType":5123,
			"count":720,
			"type":"SCALAR"
		},
		{
			"bufferView":36,
			"componentType":5126,
			"count":1940,
			"max":[
				0.7563837766647339,
				0.7480814456939697,
				0.18164461851119995
			],
			"min":[
				-0.7563837170600891,
				-0.7480814456939697,
				-0.18164034187793732
			],
			"type":"VEC3"
		},
		{
			"bufferView":37,
			"componentType":5126,
			"count":1940,
			"type":"VEC3"
		},
		{
			"bufferView":38,
			"componentType":5126,
			"count":1940,
			"type":"VEC2"
		},
		{
			"bufferView":39,
			"componentType":5123,
			"count":9216,
			"type":"SCALAR"
		},
		{
			"bufferView":40,
			"componentType":5126,
			"count":164,
			"max":[
				0.16771598160266876,
				0.16771598160266876,
				-7.8881354331970215
			],
			"min":[
				-0.16771598160266876,
				-0.16771598160266876,
				-7.916881561279297
			],
			"type":"VEC3"
		},
		{
			"bufferView":41,
			"componentType":5126,
			"count":164,
			"type":"VEC3"
		},
		{
			"bufferView":42,
			"componentType":5126,
			"count":164,
			"type":"VEC2"
		},
		{
			"bufferView":43,
			"componentType":5123,
			"count":480,
			"type":"SCALAR"
		},
		{
			"bufferView":44,
			"componentType":5126,
			"count":281,
			"max":[
				0.09901314973831177,
				1.3413593769073486,
				0.09901314973831177
			],
			"min":[
				-0.09901314973831177,
				0,
				-0.09901314973831177
			],
			"type":"VEC3"
		},
		{
			"bufferView":45,
			"componentType":5126,
			"count":281,
			"type":"VEC3"
		},
		{
			"bufferView":46,
			"componentType":5126,
			"count":281,
			"type":"VEC2"
		},
		{
			"bufferView":47,
			"componentType":5123,
			"count":816,
			"type":"SCALAR"
		},
		{
			"bufferView":48,
			"componentType":5126,
			"count":149,
			"max":[
				0.1441090703010559,
				0.957298755645752,
				0.1441090703010559
			],
			"min":[
				-0.1441090703010559,
				0,
				-0.1441090703010559
			],
			"type":"VEC3"
		},
		{
			"bufferView":49,
			"componentType":5126,
			"count":149,
			"type":"VEC3"
		},
		{
			"bufferView":50,
			"componentType":5126,
			"count":149,
			"type":"VEC2"
		},
		{
			"bufferView":51,
			"componentType":5123,
			"count":432,
			"type":"SCALAR"
		},
		{
			"bufferView":52,
			"componentType":5126,
			"count":58,
			"max":[
				0.09202028810977936,
				0.15089872479438782,
				0.0175492987036705
			],
			"min":[
				-0.09202028810977936,
				-0.15089872479438782,
				-0.01754949428141117
			],
			"type":"VEC3"
		},
		{
			"bufferView":53,
			"componentType":5126,
			"count":58,
			"type":"VEC3"
		},
		{
			"bufferView":54,
			"componentType":5126,
			"count":58,
			"type":"VEC2"
		},
		{
			"bufferView":55,
			"componentType":5123,
			"count":168,
			"type":"SCALAR"
		},
		{
			"bufferView":56,
			"componentType":5126,
			"count":804,
			"max":[
				0.051813237369060516,
				0.05174808204174042,
				0.008330919779837132
			],
			"min":[
				-0.051813237369060516,
				-0.05174808204174042,
				-0.008330919779837132
			],
			"type":"VEC3"
		},
		{
			"bufferView":57,
			"componentType":5126,
			"count":804,
			"type":"VEC3"
		},
		{
			"bufferView":58,
			"componentType":5126,
			"count":804,
			"type":"VEC2"
		},
		{
			"bufferView":59,
			"componentType":5123,
			"count":3792,
			"type":"SCALAR"
		},
		{
			"bufferView":60,
			"componentType":5126,
			"count":288,
			"max":[
				0.4418081045150757,
				2.28670597076416,
				3.73661208152771
			],
			"min":[
				-0.4418081045150757,
				2.1182444095611572,
				0.38396361470222473
			],
			"type":"VEC3"
		},
		{
			"bufferView":61,
			"componentType":5126,
			"count":288,
			"type":"VEC3"
		},
		{
			"bufferView":62,
			"componentType":5126,
			"count":288,
			"type":"VEC2"
		},
		{
			"bufferView":63,
			"componentType":5123,
			"count":864,
			"type":"SCALAR"
		}
	],
	"bufferViews":[
		{
			"buffer":0,
			"byteLength":1788,
			"byteOffset":0,
			"target":34962
		},
		{
			"buffer":0,
			"byteLength":1788,
			"byteOffset":1788,
			"target":34962
		},
		{
			"buffer":0,
			"byteLength":1192,
			"byteOffset":3576,
			"target":34962
		},
		{
			"buffer":0,
			"byteLength":864,
			"byteOffset":4768,
			"target":34963
		},
		{
			"buffer":0,
			"byteLength":1368,
			"byteOffset":5632,
			"target":34962
		},
		{
			"buffer":0,
			"byteLength":1368,
			"byteOffset":7000,
			"target":34962
		},
		{
			"buffer":0,
			"byteLength":912,
			"byteOffset":8368,
			"target":34962
		},
		{
			"buffer":0,
			"byteLength":744,
			"byteOffset":9280,
			"target":34963
		},
		{
			"buffer":0,
			"byteLength":1368,
			"byteOffset":10024,
			"target":34962
		},
		{
			"buffer":0,
			"byteLength":1368,
			"byteOffset":11392,
			"target":34962
		},
		{
			"buffer":0,
			"byteLength":912,
			"byteOffset":12760,
			"target":34962
		},
		{
			"buffer":0,
			"byteLength":744,
			"byteOffset":13672,
			"target":34963
		},
		{
			"buffer":0,
			"byteLength":1368,
			"byteOffset":14416,
			"target":34962
		},
		{
			"buffer":0,
			"byteLength":1368,
			"byteOffset":15784,
			"target":34962
		},
		{
			"buffer":0,
			"byteLength":912,
			"byteOffset":17152,
			"target":34962
		},
		{
			"buffer":0,
			"byteLength":744,
			"byteOffset":18064,
			"target":34963
		},
		{
			"buffer":0,
			"byteLength":1368,
			"byteOffset":18808,
			"target":34962
		},
		{
			"buffer":0,
			"byteLength":1368,
			"byteOffset":20176,
			"target":34962
		},
		{
			"buffer":0,
			"byteLength":912,
			"byteOffset":21544,
			"target":34962
		},
		{
			"buffer":0,
			"byteLength":744,
			"byteOffset":22456,
			"target":34963
		},
		{
			"buffer":0,
			"byteLength":1368,
			"byteOffset":23200,
			"target":34962
		},
		{
			"buffer":0,
			"byteLength":1368,
			"byteOffset":24568,
			"target":34962
		},
		{
			"buffer":0,
			"byteLength":912,
			"byteOffset":25936,
			"target":34962
		},
		{
			"buffer":0,
			"byteLength":744,
			"byteOffset":26848,
			"target":34963
		},
		{
			"buffer":0,
			"byteLength":1368,
			"byteOffset":27592,
			"target":34962
		},
		{
			"buffer":0,
			"byteLength":1368,
			"byteOffset":28960,
			"target":34962
		},
		{
			"buffer":0,
			"byteLength":912,
			"byteOffset":30328,
			"target":34962
		},
		{
			"buffer":0,
			"byteLength":744,
			"byteOffset":31240,
			"target":34963
		},
		{
			"buffer":0,
			"byteLength":63024,
			"byteOffset":31984,
			"target":34962
		},
		{
			"buffer":0,
			"byteLength":63024,
			"byteOffset":95008,
			"target":34962
		},
		{
			"buffer":0,
			"byteLength":42016,
			"byteOffset":158032,
			"target":34962
		},
		{
			"buffer":0,
			"byteLength":55032,
			"byteOffset":200048,
			"target":34963
		},
		{
			"buffer":0,
			"byteLength":2964,
			"byteOffset":255080,
			"target":34962
		},
		{
			"buffer":0,
			"byteLength":2964,
			"byteOffset":258044,
			"target":34962
		},
		{
			"buffer":0,
			"byteLength":1976,
			"byteOffset":261008,
			"target":34962
		},
		{
			"buffer":0,
			"byteLength":1440,
			"byteOffset":262984,
			"target":34963
		},
		{
			"buffer":0,
			"byteLength":23280,
			"byteOffset":264424,
			"target":34962
		},
		{
			"buffer":0,
			"byteLength":23280,
			"byteOffset":287704,
			"target":34962
		},
		{
			"buffer":0,
			"byteLength":15520,
			"byteOffset":310984,
			"target":34962
		},
		{
			"buffer":0,
			"byteLength":18432,
			"byteOffset":326504,
			"target":34963
		},
		{
			"buffer":0,
			"byteLength":1968,
			"byteOffset":344936,
			"target":34962
		},
		{
			"buffer":0,
			"byteLength":1968,
			"byteOffset":346904,
			"target":34962
		},
		{
			"buffer":0,
			"byteLength":1312,
			"byteOffset":348872,
			"target":34962
		},
		{
			"buffer":0,
			"byteLength":960,
			"byteOffset":350184,
			"target":34963
		},
		{
			"buffer":0,
			"byteLength":3372,
			"byteOffset":351144,
			"target":34962
		},
		{
			"buffer":0,
			"byteLength":3372,
			"byteOffset":354516,
			"target":34962
		},
		{
			"buffer":0,
			"byteLength":2248,
			"byteOffset":357888,
			"target":34962
		},
		{
			"buffer":0,
			"byteLength":1632,
			"byteOffset":360136,
			"target":34963
		},
		{
			"buffer":0,
			"byteLength":1788,
			"byteOffset":361768,
			"target":34962
		},
		{
			"buffer":0,
			"byteLength":1788,
			"byteOffset":363556,
			"target":34962
		},
		{
			"buffer":0,
			"byteLength":1192,
			"byteOffset":365344,
			"target":34962
		},
		{
			"buffer":0,
			"byteLength":864,
			"byteOffset":366536,
			"target":34963
		},
		{
			"buffer":0,
			"byteLength":696,
			"byteOffset":367400,
			"target":34962
		},
		{
			"buffer":0,
			"byteLength":696,
			"byteOffset":368096,
			"target":34962
		},
		{
			"buffer":0,
			"byteLength":464,
			"byteOffset":368792,
			"target":34962
		},
		{
			"buffer":0,
			"byteLength":336,
			"byteOffset":369256,
			"target":34963
		},
		{
			"buffer":0,
			"byteLength":9648,
			"byteOffset":369592,
			"target":34962
		},
		{
			"buffer":0,
			"byteLength":9648,
			"byteOffset":379240,
			"target":34962
		},
		{
			"buffer":0,
			"byteLength":6432,
			"byteOffset":388888,
			"target":34962
		},
		{
			"buffer":0,
			"byteLength":7584,
			"byteOffset":395320,
			"target":34963
		},
		{
			"buffer":0,
			"byteLength":3456,
			"byteOffset":402904,
			"target":34962
		},
		{
			"buffer":0,
			"byteLength":3456,
			"byteOffset":406360,
			"target":34962
		},
		{
			"buffer":0,
			"byteLength":2304,
			"byteOffset":409816,
			"target":34962
		},
		{
			"buffer":0,
			"byteLength":1728,
			"byteOffset":412120,
			"target":34963
		}
	],
	"buffers":[
		{
			"byteLength":413848,
			"uri":"submarinSmecher.bin"
		}
	]
}
