{
	"asset":{
		"generator":"Khronos glTF Blender I/O v4.0.44",
		"version":"2.0"
	},
	"scene":0,
	"scenes":[
		{
			"name":"Scene",
			"nodes":[
				0
			]
		}
	],
	"nodes":[
		{
			"mesh":0,
			"name":"Plane",
			"scale":[
				-60,
				-155.5351104736328,
				-60
			],
			"translation":[
				0,
				-36.56987762451172,
				0
			]
		}
	],
	"materials":[
		{
			"doubleSided":true,
			"name":"Material.004",
			"pbrMetallicRoughness":{
				"baseColorTexture":{
					"index":0
				},
				"metallicFactor":0,
				"roughnessFactor":0.5
			}
		}
	],
	"meshes":[
		{
			"name":"Plane.015",
			"primitives":[
				{
					"attributes":{
						"POSITION":0,
						"NORMAL":1,
						"TEXCOORD_0":2
					},
					"indices":3,
					"material":0
				}
			]
		}
	],
	"textures":[
		{
			"sampler":0,
			"source":0
		}
	],
	"images":[
		{
			"mimeType":"image/jpeg",
			"name":"underwater_sand1",
			"uri":"underwater_sand1.jpg"
		}
	],
	"accessors":[
		{
			"bufferView":0,
			"componentType":5126,
			"count":16533,
			"max":[
				1.3491923809051514,
				-0.00011419451038818806,
				1.2077199220657349
			],
			"min":[
				-1.1784545183181763,
				-0.3158978819847107,
				-1.2277166843414307
			],
			"type":"VEC3"
		},
		{
			"bufferView":1,
			"componentType":5126,
			"count":16533,
			"type":"VEC3"
		},
		{
			"bufferView":2,
			"componentType":5126,
			"count":16533,
			"type":"VEC2"
		},
		{
			"bufferView":3,
			"componentType":5123,
			"count":24579,
			"type":"SCALAR"
		}
	],
	"bufferViews":[
		{
			"buffer":0,
			"byteLength":198396,
			"byteOffset":0,
			"target":34962
		},
		{
			"buffer":0,
			"byteLength":198396,
			"byteOffset":198396,
			"target":34962
		},
		{
			"buffer":0,
			"byteLength":132264,
			"byteOffset":396792,
			"target":34962
		},
		{
			"buffer":0,
			"byteLength":49158,
			"byteOffset":529056,
			"target":34963
		}
	],
	"samplers":[
		{
			"magFilter":9729,
			"minFilter":9987
		}
	],
	"buffers":[
		{
			"byteLength":578216,
			"uri":"terenFinal.bin"
		}
	]
}
