{
    "accessors": {
        "accessor_16": {
            "bufferView": "bufferView_42",
            "byteOffset": 0,
            "byteStride": 2,
            "componentType": 5123,
            "count": 450,
            "max": [
                96
            ],
            "min": [
                0
            ],
            "type": "SCALAR"
        },
        "accessor_18": {
            "bufferView": "bufferView_43",
            "byteOffset": 0,
            "byteStride": 12,
            "componentType": 5126,
            "count": 153,
            "max": [
                -73.61000061035156,
                2.7520699501037598,
                3.234339952468872
            ],
            "min": [
                -75.98999786376953,
                -3.4000000953674316,
                -3.234339952468872
            ],
            "type": "VEC3"
        },
        "accessor_20": {
            "bufferView": "bufferView_43",
            "byteOffset": 1836,
            "byteStride": 2,
            "componentType": 5120,
            "count": 153,
            "max": [
                127,
                123
            ],
            "min": [
                -127,
                -123
            ],
            "type": "VEC2"
        },
        "accessor_36": {
            "bufferView": "bufferView_42",
            "byteOffset": 900,
            "byteStride": 2,
            "componentType": 5123,
            "count": 1998,
            "max": [
                239
            ],
            "min": [
                0
            ],
            "type": "SCALAR"
        },
        "accessor_38": {
            "bufferView": "bufferView_43",
            "byteOffset": 2144,
            "byteStride": 12,
            "componentType": 5126,
            "count": 415,
            "max": [
                30.600000381469727,
                7.139999866485596,
                14.109999656677246
            ],
            "min": [
                -73.61000061035156,
                -7.139999866485596,
                -7.139999866485596
            ],
            "type": "VEC3"
        },
        "accessor_40": {
            "bufferView": "bufferView_43",
            "byteOffset": 7124,
            "byteStride": 2,
            "componentType": 5120,
            "count": 415,
            "max": [
                127,
                127
            ],
            "min": [
                -127,
                -127
            ],
            "type": "VEC2"
        }
    },
    "asset": {
        "generator": "collada2gltf@5615a4b07622d550a8e9bf110997b084cbbb8960",
        "premultipliedAlpha": true,
        "profile": {
            "api": "WebGL",
            "version": "1.0.2"
        },
        "version": "1.0.1"
    },
    "bufferViews": {
        "bufferView_42": {
            "buffer": "sea-wolf",
            "byteLength": 4896,
            "byteOffset": 0,
            "target": 34963
        },
        "bufferView_43": {
            "buffer": "sea-wolf",
            "byteLength": 7956,
            "byteOffset": 4896,
            "target": 34962
        }
    },
    "buffers": {
        "sea-wolf": {
            "byteLength": 12852,
            "type": "arraybuffer",
            "uri": "data:application/octet-stream;base64,"
        }
    },
    "materials": {
        "Hub-Revolve-effect": {
            "name": "Hub-Revolve-material",
            "technique": "technique0",
            "values": {
                "ambient": [
                    1,
                    0.8431370258331299,
                    0,
                    1
                ],
                "diffuse": [
                    1,
                    0.8431370258331299,
                    0,
                    1
                ],
                "emission": [
                    0,
                    0,
                    0,
                    1
                ],
                "shininess": 0,
                "specular": [
                    0,
                    0,
                    0,
                    1
                ]
            }
        },
        "Hull-Revolve-effect": {
            "name": "Hull-Revolve-material",
            "technique": "technique0",
            "values": {
                "ambient": [
                    0.49803900718688965,
                    0.49803900718688965,
                    0.49803900718688965,
                    1
                ],
                "diffuse": [
                    0.49803900718688965,
                    0.49803900718688965,
                    0.49803900718688965,
                    1
                ],
                "emission": [
                    0,
                    0,
                    0,
                    1
                ],
                "shininess": 0,
                "specular": [
                    0,
                    0,
                    0,
                    1
                ]
            }
        }
    },
    "meshes": {
        "geometry-ID1": {
            "name": "geometry-ID1",
            "primitives": [
                {
                    "attributes": {
                        "NORMAL": "accessor_20",
                        "POSITION": "accessor_18"
                    },
                    "indices": "accessor_16",
                    "material": "Hub-Revolve-effect",
                    "mode": 4
                }
            ]
        },
        "geometry-ID2": {
            "name": "geometry-ID2",
            "primitives": [
                {
                    "attributes": {
                        "NORMAL": "accessor_40",
                        "POSITION": "accessor_38"
                    },
                    "indices": "accessor_36",
                    "material": "Hull-Revolve-effect",
                    "mode": 4
                }
            ]
        }
    },
    "nodes": {
        "node_0": {
            "children": [],
            "meshes": [
                "geometry-ID1"
            ],
            "name": ""
        },
        "node_1": {
            "children": [],
            "meshes": [
                "geometry-ID2"
            ],
            "name": ""
        },
        "node_2": {
            "children": [
                "node_0",
                "node_1"
            ],
            "matrix": [
                1,
                0,
                0,
                0,
                0,
                0,
                -1,
                0,
                0,
                1,
                0,
                0,
                0,
                0,
                0,
                1
            ],
            "name": "Y_UP_Transform"
        }
    },
    "programs": {
        "program_0": {
            "attributes": [
                "a_normal",
                "a_position"
            ],
            "fragmentShader": "sea-wolf0FS",
            "vertexShader": "sea-wolf0VS"
        }
    },
    "scene": "defaultScene",
    "scenes": {
        "defaultScene": {
            "nodes": [
                "node_2"
            ]
        }
    },
    "shaders": {
        "sea-wolf0FS": {
            "type": 35632,
            "uri": "data:text/plain;base64,"
        },
        "sea-wolf0VS": {
            "type": 35633,
            "uri": "data:text/plain;base64,"
        }
    },
    "skins": {},
    "techniques": {
        "technique0": {
            "attributes": {
                "a_normal": "normal",
                "a_position": "position"
            },
            "parameters": {
                "ambient": {
                    "type": 35666
                },
                "diffuse": {
                    "semantic": "_3DTILESDIFFUSE",
                    "type": 35666
                },
                "emission": {
                    "type": 35666
                },
                "modelViewMatrix": {
                    "semantic": "MODELVIEW",
                    "type": 35676
                },
                "normal": {
                    "semantic": "NORMAL",
                    "type": 35665
                },
                "normalMatrix": {
                    "semantic": "MODELVIEWINVERSETRANSPOSE",
                    "type": 35675
                },
                "position": {
                    "semantic": "POSITION",
                    "type": 35665
                },
                "projectionMatrix": {
                    "semantic": "PROJECTION",
                    "type": 35676
                },
                "shininess": {
                    "type": 5126
                },
                "specular": {
                    "type": 35666
                }
            },
            "program": "program_0",
            "states": {
                "enable": [
                    2929
                ]
            },
            "uniforms": {
                "u_ambient": "ambient",
                "u_diffuse": "diffuse",
                "u_emission": "emission",
                "u_modelViewMatrix": "modelViewMatrix",
                "u_normalMatrix": "normalMatrix",
                "u_projectionMatrix": "projectionMatrix",
                "u_shininess": "shininess",
                "u_specular": "specular"
            }
        }
    }
}