{
	"asset":{
		"generator":"Khronos glTF Blender I/O v4.0.44",
		"version":"2.0"
	},
	"scene":0,
	"scenes":[
		{
			"name":"Scene",
			"nodes":[
				0,
				1,
				2,
				3,
				4,
				5,
				6,
				7,
				8,
				9,
				10,
				11,
				12
			]
		}
	],
	"nodes":[
		{
			"mesh":0,
			"name":"carlinga",
			"scale":[
				1.0733699798583984,
				1,
				1
			],
			"translation":[
				-1.2640564441680908,
				0.5055016279220581,
				-6.033107280731201
			]
		},
		{
			"mesh":1,
			"name":"picior dreapta fata",
			"scale":[
				1,
				1.3611268997192383,
				1
			],
			"translation":[
				0.004609823226928711,
				-1.201528787612915,
				-5.204735279083252
			]
		},
		{
			"mesh":2,
			"name":"picior stanga fata",
			"scale":[
				1,
				1.3611268997192383,
				1
			],
			"translation":[
				0.004609823226928711,
				-1.201528787612915,
				-6.842855453491211
			]
		},
		{
			"mesh":3,
			"name":"picior dreapta spate",
			"scale":[
				1,
				1.3611268997192383,
				1
			],
			"translation":[
				-2.452570676803589,
				-1.201528787612915,
				-5.204735279083252
			]
		},
		{
			"mesh":4,
			"name":"picior stanga spate",
			"scale":[
				1,
				1.3611268997192383,
				1
			],
			"translation":[
				-2.452570676803589,
				-1.201528787612915,
				-6.842855453491211
			]
		},
		{
			"mesh":5,
			"name":"pluta dreapta",
			"rotation":[
				0.5,
				0.5,
				-0.5,
				0.5
			],
			"scale":[
				1,
				1,
				1.0382505655288696
			],
			"translation":[
				-1.2930630445480347,
				-1.5680421590805054,
				-5.14047384262085
			]
		},
		{
			"mesh":6,
			"name":"pluta stanga",
			"rotation":[
				0.5,
				0.5,
				-0.5,
				0.5
			],
			"scale":[
				1,
				1,
				1.0382505655288696
			],
			"translation":[
				-1.252044439315796,
				-1.5680421590805054,
				-6.920473098754883
			]
		},
		{
			"mesh":7,
			"name":"fereastra fata",
			"scale":[
				1.41209077835083,
				1,
				1
			],
			"translation":[
				-2.1044397354125977,
				0.5055016279220581,
				-6.033107280731201
			]
		},
		{
			"mesh":8,
			"name":"propulsor dreapta",
			"rotation":[
				0.7071000933647156,
				-0.7070991396903992,
				0.0031845783814787865,
				0.003196317469701171
			],
			"scale":[
				0.6760711073875427,
				0.6760711073875427,
				0.41469570994377136
			],
			"translation":[
				-2.043560028076172,
				0.23856599628925323,
				-3.514409303665161
			]
		},
		{
			"mesh":9,
			"name":"propulsor.001",
			"rotation":[
				0.7071000933647156,
				-0.7070991396903992,
				0.0031845783814787865,
				0.003196317469701171
			],
			"scale":[
				0.6760711073875427,
				0.6760711073875427,
				0.41469570994377136
			],
			"translation":[
				-2.043560028076172,
				0.23856599628925323,
				-8.528996467590332
			]
		},
		{
			"mesh":10,
			"name":"bara propulsor dreapta",
			"rotation":[
				0,
				0.7071068286895752,
				0.7071068286895752,
				3.090862321641907e-08
			],
			"scale":[
				1.6628228425979614,
				1.6628228425979614,
				1.6628228425979614
			],
			"translation":[
				-2.785249948501587,
				1.9049899578094482,
				-5.176257133483887
			]
		},
		{
			"mesh":11,
			"name":"bara propulsor dreapta.001",
			"rotation":[
				-0.4545196294784546,
				-0.5416751503944397,
				-0.5416752099990845,
				0.4545195996761322
			],
			"scale":[
				1.6628228425979614,
				1.6628228425979614,
				1.6628228425979614
			],
			"translation":[
				-3.018925905227661,
				1.9049899578094482,
				-7.03441858291626
			]
		},
		{
			"mesh":12,
			"name":"Cube",
			"scale":[
				0.7159048914909363,
				0.3881641924381256,
				0.3881641924381256
			],
			"translation":[
				-1.2871508598327637,
				2.0498673915863037,
				-6.393056392669678
			]
		}
	],
	"materials":[
		{
			"doubleSided":true,
			"name":"Material.002",
			"pbrMetallicRoughness":{
				"baseColorFactor":[
					0.5360714197158813,
					0.8022841811180115,
					0.004705715458840132,
					1
				],
				"metallicFactor":0,
				"roughnessFactor":0.5
			}
		},
		{
			"doubleSided":true,
			"name":"Material.003",
			"pbrMetallicRoughness":{
				"baseColorFactor":[
					0.6933243274688721,
					0.6933243274688721,
					0.6933243274688721,
					1
				],
				"metallicFactor":0,
				"roughnessFactor":0.5
			}
		},
		{
			"doubleSided":true,
			"name":"Material.005",
			"pbrMetallicRoughness":{
				"baseColorFactor":[
					0.6933243274688721,
					0.6933243274688721,
					0.6933243274688721,
					1
				],
				"metallicFactor":0,
				"roughnessFactor":0.5
			}
		},
		{
			"doubleSided":true,
			"name":"Material.004",
			"pbrMetallicRoughness":{
				"baseColorFactor":[
					0.6933243274688721,
					0.6933243274688721,
					0.6933243274688721,
					1
				],
				"metallicFactor":0,
				"roughnessFactor":0.5
			}
		},
		{
			"doubleSided":true,
			"name":"Material.006",
			"pbrMetallicRoughness":{
				"baseColorFactor":[
					0.6933243274688721,
					0.6933243274688721,
					0.6933243274688721,
					1
				],
				"metallicFactor":0,
				"roughnessFactor":0.5
			}
		},
		{
			"doubleSided":true,
			"name":"Material.007",
			"pbrMetallicRoughness":{
				"baseColorFactor":[
					0.6937993764877319,
					0.5705510377883911,
					0.03714625909924507,
					1
				],
				"metallicFactor":0,
				"roughnessFactor":0.5
			}
		},
		{
			"doubleSided":true,
			"name":"Material.008",
			"pbrMetallicRoughness":{
				"baseColorFactor":[
					0.6940000057220459,
					0.5709999799728394,
					0.03700000047683716,
					1
				],
				"metallicFactor":0,
				"roughnessFactor":0.5
			}
		},
		{
			"doubleSided":true,
			"name":"Material",
			"pbrMetallicRoughness":{
				"baseColorFactor":[
					0.011587252840399742,
					0.013709751889109612,
					0.4981600046157837,
					1
				],
				"metallicFactor":0,
				"roughnessFactor":0.5
			}
		},
		{
			"doubleSided":true,
			"name":"Material.009",
			"pbrMetallicRoughness":{
				"baseColorFactor":[
					0.5360000133514404,
					0.8019999861717224,
					0.004999999888241291,
					1
				],
				"metallicFactor":0,
				"roughnessFactor":0.5
			}
		}
	],
	"meshes":[
		{
			"name":"Sphere.001",
			"primitives":[
				{
					"attributes":{
						"POSITION":0,
						"NORMAL":1,
						"TEXCOORD_0":2
					},
					"indices":3,
					"material":0
				}
			]
		},
		{
			"name":"Cylinder.001",
			"primitives":[
				{
					"attributes":{
						"POSITION":4,
						"NORMAL":5,
						"TEXCOORD_0":6
					},
					"indices":7,
					"material":1
				}
			]
		},
		{
			"name":"Cylinder.002",
			"primitives":[
				{
					"attributes":{
						"POSITION":8,
						"NORMAL":9,
						"TEXCOORD_0":10
					},
					"indices":7,
					"material":2
				}
			]
		},
		{
			"name":"Cylinder.003",
			"primitives":[
				{
					"attributes":{
						"POSITION":11,
						"NORMAL":12,
						"TEXCOORD_0":13
					},
					"indices":7,
					"material":3
				}
			]
		},
		{
			"name":"Cylinder.004",
			"primitives":[
				{
					"attributes":{
						"POSITION":14,
						"NORMAL":15,
						"TEXCOORD_0":16
					},
					"indices":7,
					"material":4
				}
			]
		},
		{
			"name":"Cylinder.006",
			"primitives":[
				{
					"attributes":{
						"POSITION":17,
						"NORMAL":18,
						"TEXCOORD_0":19
					},
					"indices":20,
					"material":5
				}
			]
		},
		{
			"name":"Cylinder.007",
			"primitives":[
				{
					"attributes":{
						"POSITION":21,
						"NORMAL":22,
						"TEXCOORD_0":23
					},
					"indices":20,
					"material":6
				}
			]
		},
		{
			"name":"Sphere.002",
			"primitives":[
				{
					"attributes":{
						"POSITION":24,
						"NORMAL":25,
						"TEXCOORD_0":26
					},
					"indices":27,
					"material":7
				}
			]
		},
		{
			"name":"Cube.005",
			"primitives":[
				{
					"attributes":{
						"POSITION":28,
						"NORMAL":29,
						"TEXCOORD_0":30
					},
					"indices":31,
					"material":8
				}
			]
		},
		{
			"name":"Cube.006",
			"primitives":[
				{
					"attributes":{
						"POSITION":32,
						"NORMAL":33,
						"TEXCOORD_0":34
					},
					"indices":31,
					"material":8
				}
			]
		},
		{
			"name":"Cube",
			"primitives":[
				{
					"attributes":{
						"POSITION":35,
						"NORMAL":36,
						"TEXCOORD_0":37
					},
					"indices":38
				}
			]
		},
		{
			"name":"Cube.001",
			"primitives":[
				{
					"attributes":{
						"POSITION":39,
						"NORMAL":40,
						"TEXCOORD_0":41
					},
					"indices":38
				}
			]
		},
		{
			"name":"Cube.008",
			"primitives":[
				{
					"attributes":{
						"POSITION":42,
						"NORMAL":43,
						"TEXCOORD_0":44
					},
					"indices":45
				}
			]
		}
	],
	"accessors":[
		{
			"bufferView":0,
			"componentType":5126,
			"count":343,
			"max":[
				2.788836717605591,
				1.2827080488204956,
				1.7599999904632568
			],
			"min":[
				-2.8990840911865234,
				-1.7599999904632568,
				-1.7599999904632568
			],
			"type":"VEC3"
		},
		{
			"bufferView":1,
			"componentType":5126,
			"count":343,
			"type":"VEC3"
		},
		{
			"bufferView":2,
			"componentType":5126,
			"count":343,
			"type":"VEC2"
		},
		{
			"bufferView":3,
			"componentType":5123,
			"count":1716,
			"type":"SCALAR"
		},
		{
			"bufferView":4,
			"componentType":5126,
			"count":192,
			"max":[
				0.07000000774860382,
				0.3450000286102295,
				0.07000000774860382
			],
			"min":[
				-0.07000000774860382,
				-0.3450000286102295,
				-0.07000000774860382
			],
			"type":"VEC3"
		},
		{
			"bufferView":5,
			"componentType":5126,
			"count":192,
			"type":"VEC3"
		},
		{
			"bufferView":6,
			"componentType":5126,
			"count":192,
			"type":"VEC2"
		},
		{
			"bufferView":7,
			"componentType":5123,
			"count":372,
			"type":"SCALAR"
		},
		{
			"bufferView":8,
			"componentType":5126,
			"count":192,
			"max":[
				0.07000000774860382,
				0.3450000286102295,
				0.07000000774860382
			],
			"min":[
				-0.07000000774860382,
				-0.3450000286102295,
				-0.07000000774860382
			],
			"type":"VEC3"
		},
		{
			"bufferView":9,
			"componentType":5126,
			"count":192,
			"type":"VEC3"
		},
		{
			"bufferView":10,
			"componentType":5126,
			"count":192,
			"type":"VEC2"
		},
		{
			"bufferView":11,
			"componentType":5126,
			"count":192,
			"max":[
				0.07000000774860382,
				0.3450000286102295,
				0.07000000774860382
			],
			"min":[
				-0.07000000774860382,
				-0.3450000286102295,
				-0.07000000774860382
			],
			"type":"VEC3"
		},
		{
			"bufferView":12,
			"componentType":5126,
			"count":192,
			"type":"VEC3"
		},
		{
			"bufferView":13,
			"componentType":5126,
			"count":192,
			"type":"VEC2"
		},
		{
			"bufferView":14,
			"componentType":5126,
			"count":192,
			"max":[
				0.07000000774860382,
				0.3450000286102295,
				0.07000000774860382
			],
			"min":[
				-0.07000000774860382,
				-0.3450000286102295,
				-0.07000000774860382
			],
			"type":"VEC3"
		},
		{
			"bufferView":15,
			"componentType":5126,
			"count":192,
			"type":"VEC3"
		},
		{
			"bufferView":16,
			"componentType":5126,
			"count":192,
			"type":"VEC2"
		},
		{
			"bufferView":17,
			"componentType":5126,
			"count":192,
			"max":[
				0.2799999713897705,
				2.31000018119812,
				0.10450756549835205
			],
			"min":[
				-0.2800000309944153,
				-2.31000018119812,
				-0.11475817859172821
			],
			"type":"VEC3"
		},
		{
			"bufferView":18,
			"componentType":5126,
			"count":192,
			"type":"VEC3"
		},
		{
			"bufferView":19,
			"componentType":5126,
			"count":192,
			"type":"VEC2"
		},
		{
			"bufferView":20,
			"componentType":5123,
			"count":372,
			"type":"SCALAR"
		},
		{
			"bufferView":21,
			"componentType":5126,
			"count":192,
			"max":[
				0.2799999713897705,
				2.31000018119812,
				0.10450756549835205
			],
			"min":[
				-0.2800000309944153,
				-2.31000018119812,
				-0.11475817859172821
			],
			"type":"VEC3"
		},
		{
			"bufferView":22,
			"componentType":5126,
			"count":192,
			"type":"VEC3"
		},
		{
			"bufferView":23,
			"componentType":5126,
			"count":192,
			"type":"VEC2"
		},
		{
			"bufferView":24,
			"componentType":5126,
			"count":63,
			"max":[
				2.7718186378479004,
				0.759315550327301,
				0.7250201106071472
			],
			"min":[
				2.5195698738098145,
				-0.7614243030548096,
				-0.7250201106071472
			],
			"type":"VEC3"
		},
		{
			"bufferView":25,
			"componentType":5126,
			"count":63,
			"type":"VEC3"
		},
		{
			"bufferView":26,
			"componentType":5126,
			"count":63,
			"type":"VEC2"
		},
		{
			"bufferView":27,
			"componentType":5123,
			"count":288,
			"type":"SCALAR"
		},
		{
			"bufferView":28,
			"componentType":5126,
			"count":726,
			"max":[
				1.0876845121383667,
				0.19299688935279846,
				1.785897970199585
			],
			"min":[
				-1.1045781373977661,
				-0.18673154711723328,
				-1.7830817699432373
			],
			"type":"VEC3"
		},
		{
			"bufferView":29,
			"componentType":5126,
			"count":726,
			"type":"VEC3"
		},
		{
			"bufferView":30,
			"componentType":5126,
			"count":726,
			"type":"VEC2"
		},
		{
			"bufferView":31,
			"componentType":5123,
			"count":1104,
			"type":"SCALAR"
		},
		{
			"bufferView":32,
			"componentType":5126,
			"count":726,
			"max":[
				1.0876845121383667,
				0.19299688935279846,
				1.785897970199585
			],
			"min":[
				-1.1045781373977661,
				-0.18673154711723328,
				-1.7830817699432373
			],
			"type":"VEC3"
		},
		{
			"bufferView":33,
			"componentType":5126,
			"count":726,
			"type":"VEC3"
		},
		{
			"bufferView":34,
			"componentType":5126,
			"count":726,
			"type":"VEC2"
		},
		{
			"bufferView":35,
			"componentType":5126,
			"count":336,
			"max":[
				-0.47379055619239807,
				1.0298113822937012,
				-0.9699999690055847
			],
			"min":[
				-1.0298113822937012,
				0.47379055619239807,
				-1.0299999713897705
			],
			"type":"VEC3"
		},
		{
			"bufferView":36,
			"componentType":5126,
			"count":336,
			"type":"VEC3"
		},
		{
			"bufferView":37,
			"componentType":5126,
			"count":336,
			"type":"VEC2"
		},
		{
			"bufferView":38,
			"componentType":5123,
			"count":504,
			"type":"SCALAR"
		},
		{
			"bufferView":39,
			"componentType":5126,
			"count":336,
			"max":[
				-0.47379055619239807,
				1.0298113822937012,
				-0.9699999690055847
			],
			"min":[
				-1.0298113822937012,
				0.47379055619239807,
				-1.0299999713897705
			],
			"type":"VEC3"
		},
		{
			"bufferView":40,
			"componentType":5126,
			"count":336,
			"type":"VEC3"
		},
		{
			"bufferView":41,
			"componentType":5126,
			"count":336,
			"type":"VEC2"
		},
		{
			"bufferView":42,
			"componentType":5126,
			"count":66,
			"max":[
				1,
				1.0012449026107788,
				1.0812939405441284
			],
			"min":[
				-1.006685495376587,
				-0.9990668892860413,
				0.7372750043869019
			],
			"type":"VEC3"
		},
		{
			"bufferView":43,
			"componentType":5126,
			"count":66,
			"type":"VEC3"
		},
		{
			"bufferView":44,
			"componentType":5126,
			"count":66,
			"type":"VEC2"
		},
		{
			"bufferView":45,
			"componentType":5123,
			"count":120,
			"type":"SCALAR"
		}
	],
	"bufferViews":[
		{
			"buffer":0,
			"byteLength":4116,
			"byteOffset":0,
			"target":34962
		},
		{
			"buffer":0,
			"byteLength":4116,
			"byteOffset":4116,
			"target":34962
		},
		{
			"buffer":0,
			"byteLength":2744,
			"byteOffset":8232,
			"target":34962
		},
		{
			"buffer":0,
			"byteLength":3432,
			"byteOffset":10976,
			"target":34963
		},
		{
			"buffer":0,
			"byteLength":2304,
			"byteOffset":14408,
			"target":34962
		},
		{
			"buffer":0,
			"byteLength":2304,
			"byteOffset":16712,
			"target":34962
		},
		{
			"buffer":0,
			"byteLength":1536,
			"byteOffset":19016,
			"target":34962
		},
		{
			"buffer":0,
			"byteLength":744,
			"byteOffset":20552,
			"target":34963
		},
		{
			"buffer":0,
			"byteLength":2304,
			"byteOffset":21296,
			"target":34962
		},
		{
			"buffer":0,
			"byteLength":2304,
			"byteOffset":23600,
			"target":34962
		},
		{
			"buffer":0,
			"byteLength":1536,
			"byteOffset":25904,
			"target":34962
		},
		{
			"buffer":0,
			"byteLength":2304,
			"byteOffset":27440,
			"target":34962
		},
		{
			"buffer":0,
			"byteLength":2304,
			"byteOffset":29744,
			"target":34962
		},
		{
			"buffer":0,
			"byteLength":1536,
			"byteOffset":32048,
			"target":34962
		},
		{
			"buffer":0,
			"byteLength":2304,
			"byteOffset":33584,
			"target":34962
		},
		{
			"buffer":0,
			"byteLength":2304,
			"byteOffset":35888,
			"target":34962
		},
		{
			"buffer":0,
			"byteLength":1536,
			"byteOffset":38192,
			"target":34962
		},
		{
			"buffer":0,
			"byteLength":2304,
			"byteOffset":39728,
			"target":34962
		},
		{
			"buffer":0,
			"byteLength":2304,
			"byteOffset":42032,
			"target":34962
		},
		{
			"buffer":0,
			"byteLength":1536,
			"byteOffset":44336,
			"target":34962
		},
		{
			"buffer":0,
			"byteLength":744,
			"byteOffset":45872,
			"target":34963
		},
		{
			"buffer":0,
			"byteLength":2304,
			"byteOffset":46616,
			"target":34962
		},
		{
			"buffer":0,
			"byteLength":2304,
			"byteOffset":48920,
			"target":34962
		},
		{
			"buffer":0,
			"byteLength":1536,
			"byteOffset":51224,
			"target":34962
		},
		{
			"buffer":0,
			"byteLength":756,
			"byteOffset":52760,
			"target":34962
		},
		{
			"buffer":0,
			"byteLength":756,
			"byteOffset":53516,
			"target":34962
		},
		{
			"buffer":0,
			"byteLength":504,
			"byteOffset":54272,
			"target":34962
		},
		{
			"buffer":0,
			"byteLength":576,
			"byteOffset":54776,
			"target":34963
		},
		{
			"buffer":0,
			"byteLength":8712,
			"byteOffset":55352,
			"target":34962
		},
		{
			"buffer":0,
			"byteLength":8712,
			"byteOffset":64064,
			"target":34962
		},
		{
			"buffer":0,
			"byteLength":5808,
			"byteOffset":72776,
			"target":34962
		},
		{
			"buffer":0,
			"byteLength":2208,
			"byteOffset":78584,
			"target":34963
		},
		{
			"buffer":0,
			"byteLength":8712,
			"byteOffset":80792,
			"target":34962
		},
		{
			"buffer":0,
			"byteLength":8712,
			"byteOffset":89504,
			"target":34962
		},
		{
			"buffer":0,
			"byteLength":5808,
			"byteOffset":98216,
			"target":34962
		},
		{
			"buffer":0,
			"byteLength":4032,
			"byteOffset":104024,
			"target":34962
		},
		{
			"buffer":0,
			"byteLength":4032,
			"byteOffset":108056,
			"target":34962
		},
		{
			"buffer":0,
			"byteLength":2688,
			"byteOffset":112088,
			"target":34962
		},
		{
			"buffer":0,
			"byteLength":1008,
			"byteOffset":114776,
			"target":34963
		},
		{
			"buffer":0,
			"byteLength":4032,
			"byteOffset":115784,
			"target":34962
		},
		{
			"buffer":0,
			"byteLength":4032,
			"byteOffset":119816,
			"target":34962
		},
		{
			"buffer":0,
			"byteLength":2688,
			"byteOffset":123848,
			"target":34962
		},
		{
			"buffer":0,
			"byteLength":792,
			"byteOffset":126536,
			"target":34962
		},
		{
			"buffer":0,
			"byteLength":792,
			"byteOffset":127328,
			"target":34962
		},
		{
			"buffer":0,
			"byteLength":528,
			"byteOffset":128120,
			"target":34962
		},
		{
			"buffer":0,
			"byteLength":240,
			"byteOffset":128648,
			"target":34963
		}
	],
	"buffers":[
		{
			"byteLength":128888,
			"uri":"submarin.bin"
		}
	]
}
