{
	"asset":{
		"generator":"Khronos glTF Blender I/O v4.0.44",
		"version":"2.0"
	},
	"scene":0,
	"scenes":[
		{
			"name":"Scene",
			"nodes":[
				0
			]
		}
	],
	"nodes":[
		{
			"mesh":0,
			"name":"submarin",
			"scale":[
				0.7159048914909363,
				0.3881641924381256,
				0.3881641924381256
			],
			"translation":[
				-1.2871508598327637,
				2.0498673915863037,
				-6.393056392669678
			]
		}
	],
	"materials":[
		{
			"doubleSided":true,
			"name":"Material.002",
			"pbrMetallicRoughness":{
				"baseColorFactor":[
					0.5360714197158813,
					0.8022841811180115,
					0.004705715458840132,
					1
				],
				"metallicFactor":0,
				"roughnessFactor":0.5
			}
		},
		{
			"doubleSided":true,
			"name":"Material.003",
			"pbrMetallicRoughness":{
				"baseColorFactor":[
					0.6933243274688721,
					0.6933243274688721,
					0.6933243274688721,
					1
				],
				"metallicFactor":0,
				"roughnessFactor":0.5
			}
		},
		{
			"doubleSided":true,
			"name":"Material.005",
			"pbrMetallicRoughness":{
				"baseColorFactor":[
					0.6933243274688721,
					0.6933243274688721,
					0.6933243274688721,
					1
				],
				"metallicFactor":0,
				"roughnessFactor":0.5
			}
		},
		{
			"doubleSided":true,
			"name":"Material.004",
			"pbrMetallicRoughness":{
				"baseColorFactor":[
					0.6933243274688721,
					0.6933243274688721,
					0.6933243274688721,
					1
				],
				"metallicFactor":0,
				"roughnessFactor":0.5
			}
		},
		{
			"doubleSided":true,
			"name":"Material.006",
			"pbrMetallicRoughness":{
				"baseColorFactor":[
					0.6933243274688721,
					0.6933243274688721,
					0.6933243274688721,
					1
				],
				"metallicFactor":0,
				"roughnessFactor":0.5
			}
		},
		{
			"doubleSided":true,
			"name":"Material.007",
			"pbrMetallicRoughness":{
				"baseColorFactor":[
					0.6937993764877319,
					0.5705510377883911,
					0.03714625909924507,
					1
				],
				"metallicFactor":0,
				"roughnessFactor":0.5
			}
		},
		{
			"doubleSided":true,
			"name":"Material.008",
			"pbrMetallicRoughness":{
				"baseColorFactor":[
					0.6940000057220459,
					0.5709999799728394,
					0.03700000047683716,
					1
				],
				"metallicFactor":0,
				"roughnessFactor":0.5
			}
		},
		{
			"doubleSided":true,
			"name":"Material",
			"pbrMetallicRoughness":{
				"baseColorFactor":[
					0.011587252840399742,
					0.013709751889109612,
					0.4981600046157837,
					1
				],
				"metallicFactor":0,
				"roughnessFactor":0.5
			}
		},
		{
			"doubleSided":true,
			"name":"Material.009",
			"pbrMetallicRoughness":{
				"baseColorFactor":[
					0.5360000133514404,
					0.8019999861717224,
					0.004999999888241291,
					1
				],
				"metallicFactor":0,
				"roughnessFactor":0.5
			}
		}
	],
	"meshes":[
		{
			"name":"Cube.008",
			"primitives":[
				{
					"attributes":{
						"POSITION":0,
						"NORMAL":1,
						"TEXCOORD_0":2
					},
					"indices":3,
					"material":0
				},
				{
					"attributes":{
						"POSITION":4,
						"NORMAL":5,
						"TEXCOORD_0":6
					},
					"indices":7,
					"material":1
				},
				{
					"attributes":{
						"POSITION":8,
						"NORMAL":9,
						"TEXCOORD_0":10
					},
					"indices":7,
					"material":2
				},
				{
					"attributes":{
						"POSITION":11,
						"NORMAL":12,
						"TEXCOORD_0":13
					},
					"indices":7,
					"material":3
				},
				{
					"attributes":{
						"POSITION":14,
						"NORMAL":15,
						"TEXCOORD_0":16
					},
					"indices":7,
					"material":4
				},
				{
					"attributes":{
						"POSITION":17,
						"NORMAL":18,
						"TEXCOORD_0":19
					},
					"indices":20,
					"material":5
				},
				{
					"attributes":{
						"POSITION":21,
						"NORMAL":22,
						"TEXCOORD_0":23
					},
					"indices":20,
					"material":6
				},
				{
					"attributes":{
						"POSITION":24,
						"NORMAL":25,
						"TEXCOORD_0":26
					},
					"indices":27,
					"material":7
				},
				{
					"attributes":{
						"POSITION":28,
						"NORMAL":29,
						"TEXCOORD_0":30
					},
					"indices":31,
					"material":8
				}
			]
		}
	],
	"accessors":[
		{
			"bufferView":0,
			"componentType":5126,
			"count":1081,
			"max":[
				4.213615417480469,
				1.0012449026107788,
				7.5462727546691895
			],
			"min":[
				-4.314393520355225,
				-8.51280403137207,
				-5.6393585205078125
			],
			"type":"VEC3"
		},
		{
			"bufferView":1,
			"componentType":5126,
			"count":1081,
			"type":"VEC3"
		},
		{
			"bufferView":2,
			"componentType":5126,
			"count":1081,
			"type":"VEC2"
		},
		{
			"bufferView":3,
			"componentType":5123,
			"count":2844,
			"type":"SCALAR"
		},
		{
			"bufferView":4,
			"componentType":5126,
			"count":192,
			"max":[
				1.9021530151367188,
				-7.166574478149414,
				3.24172306060791
			],
			"min":[
				1.7065963745117188,
				-9.586111068725586,
				2.8810510635375977
			],
			"type":"VEC3"
		},
		{
			"bufferView":5,
			"componentType":5126,
			"count":192,
			"type":"VEC3"
		},
		{
			"bufferView":6,
			"componentType":5126,
			"count":192,
			"type":"VEC2"
		},
		{
			"bufferView":7,
			"componentType":5123,
			"count":372,
			"type":"SCALAR"
		},
		{
			"bufferView":8,
			"componentType":5126,
			"count":192,
			"max":[
				1.9021530151367188,
				-7.166574478149414,
				-0.9784507155418396
			],
			"min":[
				1.7065963745117188,
				-9.586111068725586,
				-1.3391228914260864
			],
			"type":"VEC3"
		},
		{
			"bufferView":9,
			"componentType":5126,
			"count":192,
			"type":"VEC3"
		},
		{
			"bufferView":10,
			"componentType":5126,
			"count":192,
			"type":"VEC2"
		},
		{
			"bufferView":11,
			"componentType":5126,
			"count":192,
			"max":[
				-1.5301191806793213,
				-7.166574478149414,
				3.24172306060791
			],
			"min":[
				-1.7256758213043213,
				-9.586111068725586,
				2.8810510635375977
			],
			"type":"VEC3"
		},
		{
			"bufferView":12,
			"componentType":5126,
			"count":192,
			"type":"VEC3"
		},
		{
			"bufferView":13,
			"componentType":5126,
			"count":192,
			"type":"VEC2"
		},
		{
			"bufferView":14,
			"componentType":5126,
			"count":192,
			"max":[
				-1.5301191806793213,
				-7.166574478149414,
				-0.9784507155418396
			],
			"min":[
				-1.7256758213043213,
				-9.586111068725586,
				-1.3391228914260864
			],
			"type":"VEC3"
		},
		{
			"bufferView":15,
			"componentType":5126,
			"count":192,
			"type":"VEC3"
		},
		{
			"bufferView":16,
			"componentType":5126,
			"count":192,
			"type":"VEC2"
		},
		{
			"bufferView":17,
			"componentType":5126,
			"count":192,
			"max":[
				3.2184274196624756,
				-9.013612747192383,
				3.9482836723327637
			],
			"min":[
				-3.2349441051483154,
				-9.60009765625,
				2.5055947303771973
			],
			"type":"VEC3"
		},
		{
			"bufferView":18,
			"componentType":5126,
			"count":192,
			"type":"VEC3"
		},
		{
			"bufferView":19,
			"componentType":5126,
			"count":192,
			"type":"VEC2"
		},
		{
			"bufferView":20,
			"componentType":5123,
			"count":372,
			"type":"SCALAR"
		},
		{
			"bufferView":21,
			"componentType":5126,
			"count":192,
			"max":[
				3.275723457336426,
				-9.013612747192383,
				-0.6374029517173767
			],
			"min":[
				-3.1776480674743652,
				-9.60009765625,
				-2.080091953277588
			],
			"type":"VEC3"
		},
		{
			"bufferView":22,
			"componentType":5126,
			"count":192,
			"type":"VEC3"
		},
		{
			"bufferView":23,
			"componentType":5126,
			"count":192,
			"type":"VEC2"
		},
		{
			"bufferView":24,
			"componentType":5126,
			"count":63,
			"max":[
				4.3256731033325195,
				-2.0224695205688477,
				2.795128107070923
			],
			"min":[
				3.8281233310699463,
				-5.940244197845459,
				-0.9405081272125244
			],
			"type":"VEC3"
		},
		{
			"bufferView":25,
			"componentType":5126,
			"count":63,
			"type":"VEC3"
		},
		{
			"bufferView":26,
			"componentType":5126,
			"count":63,
			"type":"VEC2"
		},
		{
			"bufferView":27,
			"componentType":5123,
			"count":288,
			"type":"SCALAR"
		},
		{
			"bufferView":28,
			"componentType":5126,
			"count":1452,
			"max":[
				-0.8802250623703003,
				-2.7424049377441406,
				9.31987476348877
			],
			"min":[
				-1.2388471364974976,
				-6.560855388641357,
				-7.409767150878906
			],
			"type":"VEC3"
		},
		{
			"bufferView":29,
			"componentType":5126,
			"count":1452,
			"type":"VEC3"
		},
		{
			"bufferView":30,
			"componentType":5126,
			"count":1452,
			"type":"VEC2"
		},
		{
			"bufferView":31,
			"componentType":5123,
			"count":2208,
			"type":"SCALAR"
		}
	],
	"bufferViews":[
		{
			"buffer":0,
			"byteLength":12972,
			"byteOffset":0,
			"target":34962
		},
		{
			"buffer":0,
			"byteLength":12972,
			"byteOffset":12972,
			"target":34962
		},
		{
			"buffer":0,
			"byteLength":8648,
			"byteOffset":25944,
			"target":34962
		},
		{
			"buffer":0,
			"byteLength":5688,
			"byteOffset":34592,
			"target":34963
		},
		{
			"buffer":0,
			"byteLength":2304,
			"byteOffset":40280,
			"target":34962
		},
		{
			"buffer":0,
			"byteLength":2304,
			"byteOffset":42584,
			"target":34962
		},
		{
			"buffer":0,
			"byteLength":1536,
			"byteOffset":44888,
			"target":34962
		},
		{
			"buffer":0,
			"byteLength":744,
			"byteOffset":46424,
			"target":34963
		},
		{
			"buffer":0,
			"byteLength":2304,
			"byteOffset":47168,
			"target":34962
		},
		{
			"buffer":0,
			"byteLength":2304,
			"byteOffset":49472,
			"target":34962
		},
		{
			"buffer":0,
			"byteLength":1536,
			"byteOffset":51776,
			"target":34962
		},
		{
			"buffer":0,
			"byteLength":2304,
			"byteOffset":53312,
			"target":34962
		},
		{
			"buffer":0,
			"byteLength":2304,
			"byteOffset":55616,
			"target":34962
		},
		{
			"buffer":0,
			"byteLength":1536,
			"byteOffset":57920,
			"target":34962
		},
		{
			"buffer":0,
			"byteLength":2304,
			"byteOffset":59456,
			"target":34962
		},
		{
			"buffer":0,
			"byteLength":2304,
			"byteOffset":61760,
			"target":34962
		},
		{
			"buffer":0,
			"byteLength":1536,
			"byteOffset":64064,
			"target":34962
		},
		{
			"buffer":0,
			"byteLength":2304,
			"byteOffset":65600,
			"target":34962
		},
		{
			"buffer":0,
			"byteLength":2304,
			"byteOffset":67904,
			"target":34962
		},
		{
			"buffer":0,
			"byteLength":1536,
			"byteOffset":70208,
			"target":34962
		},
		{
			"buffer":0,
			"byteLength":744,
			"byteOffset":71744,
			"target":34963
		},
		{
			"buffer":0,
			"byteLength":2304,
			"byteOffset":72488,
			"target":34962
		},
		{
			"buffer":0,
			"byteLength":2304,
			"byteOffset":74792,
			"target":34962
		},
		{
			"buffer":0,
			"byteLength":1536,
			"byteOffset":77096,
			"target":34962
		},
		{
			"buffer":0,
			"byteLength":756,
			"byteOffset":78632,
			"target":34962
		},
		{
			"buffer":0,
			"byteLength":756,
			"byteOffset":79388,
			"target":34962
		},
		{
			"buffer":0,
			"byteLength":504,
			"byteOffset":80144,
			"target":34962
		},
		{
			"buffer":0,
			"byteLength":576,
			"byteOffset":80648,
			"target":34963
		},
		{
			"buffer":0,
			"byteLength":17424,
			"byteOffset":81224,
			"target":34962
		},
		{
			"buffer":0,
			"byteLength":17424,
			"byteOffset":98648,
			"target":34962
		},
		{
			"buffer":0,
			"byteLength":11616,
			"byteOffset":116072,
			"target":34962
		},
		{
			"buffer":0,
			"byteLength":4416,
			"byteOffset":127688,
			"target":34963
		}
	],
	"buffers":[
		{
			"byteLength":132104,
			"uri":"submarin1.bin"
		}
	]
}
