{
	"asset":{
		"generator":"Khronos glTF Blender I/O v4.0.44",
		"version":"2.0"
	},
	"scene":0,
	"scenes":[
		{
			"name":"Scene",
			"nodes":[
				0
			]
		}
	],
	"nodes":[
		{
			"mesh":0,
			"name":"Octopus_OctopusMesh",
			"rotation":[
				-0.5179893970489502,
				0.39691394567489624,
				-0.27789613604545593,
				0.7049255967140198
			],
			"translation":[
				8.139633178710938,
				-17.360578536987305,
				2.973480463027954
			]
		}
	],
	"materials":[
		{
			"doubleSided":true,
			"name":"Material.001",
			"pbrMetallicRoughness":{
				"baseColorTexture":{
					"index":0
				},
				"metallicFactor":0,
				"roughnessFactor":0.5
			}
		}
	],
	"meshes":[
		{
			"name":"Octopus_OctopusMesh",
			"primitives":[
				{
					"attributes":{
						"POSITION":0,
						"NORMAL":1,
						"TEXCOORD_0":2
					},
					"indices":3,
					"material":0
				},
				{
					"attributes":{
						"POSITION":4,
						"NORMAL":5,
						"TEXCOORD_0":6
					},
					"indices":7
				}
			]
		}
	],
	"textures":[
		{
			"sampler":0,
			"source":0
		}
	],
	"images":[
		{
			"mimeType":"image/jpeg",
			"name":"octo",
			"uri":"octo.jpg"
		}
	],
	"accessors":[
		{
			"bufferView":0,
			"componentType":5126,
			"count":1106,
			"max":[
				2.5749900341033936,
				2.6447060108184814,
				1.8246949911117554
			],
			"min":[
				-2.8453409671783447,
				-1.9567949771881104,
				-2.826319932937622
			],
			"type":"VEC3"
		},
		{
			"bufferView":1,
			"componentType":5126,
			"count":1106,
			"type":"VEC3"
		},
		{
			"bufferView":2,
			"componentType":5126,
			"count":1106,
			"type":"VEC2"
		},
		{
			"bufferView":3,
			"componentType":5123,
			"count":1950,
			"type":"SCALAR"
		},
		{
			"bufferView":4,
			"componentType":5126,
			"count":432,
			"max":[
				2.5749900341033936,
				2.6447060108184814,
				1.8246949911117554
			],
			"min":[
				-2.8453409671783447,
				-1.9567949771881104,
				-0.4550429880619049
			],
			"type":"VEC3"
		},
		{
			"bufferView":5,
			"componentType":5126,
			"count":432,
			"type":"VEC3"
		},
		{
			"bufferView":6,
			"componentType":5126,
			"count":432,
			"type":"VEC2"
		},
		{
			"bufferView":7,
			"componentType":5123,
			"count":600,
			"type":"SCALAR"
		}
	],
	"bufferViews":[
		{
			"buffer":0,
			"byteLength":13272,
			"byteOffset":0,
			"target":34962
		},
		{
			"buffer":0,
			"byteLength":13272,
			"byteOffset":13272,
			"target":34962
		},
		{
			"buffer":0,
			"byteLength":8848,
			"byteOffset":26544,
			"target":34962
		},
		{
			"buffer":0,
			"byteLength":3900,
			"byteOffset":35392,
			"target":34963
		},
		{
			"buffer":0,
			"byteLength":5184,
			"byteOffset":39292,
			"target":34962
		},
		{
			"buffer":0,
			"byteLength":5184,
			"byteOffset":44476,
			"target":34962
		},
		{
			"buffer":0,
			"byteLength":3456,
			"byteOffset":49660,
			"target":34962
		},
		{
			"buffer":0,
			"byteLength":1200,
			"byteOffset":53116,
			"target":34963
		}
	],
	"samplers":[
		{
			"magFilter":9729,
			"minFilter":9987
		}
	],
	"buffers":[
		{
			"byteLength":54316,
			"uri":"octo.bin"
		}
	]
}
