{
	"asset":{
		"generator":"Khronos glTF Blender I/O v4.0.44",
		"version":"2.0"
	},
	"scene":0,
	"scenes":[
		{
			"name":"Scene",
			"nodes":[
				0
			]
		}
	],
	"nodes":[
		{
			"mesh":0,
			"name":"container"
		}
	],
	"materials":[
		{
			"doubleSided":true,
			"name":"Material.001",
			"pbrMetallicRoughness":{
				"baseColorTexture":{
					"index":0
				},
				"metallicFactor":0,
				"roughnessFactor":0.5
			}
		}
	],
	"meshes":[
		{
			"name":"Cube.001",
			"primitives":[
				{
					"attributes":{
						"POSITION":0,
						"NORMAL":1,
						"TEXCOORD_0":2
					},
					"indices":3,
					"material":0
				},
				{
					"attributes":{
						"POSITION":4,
						"NORMAL":5,
						"TEXCOORD_0":6
					},
					"indices":7
				},
				{
					"attributes":{
						"POSITION":8,
						"NORMAL":9,
						"TEXCOORD_0":10
					},
					"indices":11
				}
			]
		}
	],
	"textures":[
		{
			"sampler":0,
			"source":0
		}
	],
	"images":[
		{
			"mimeType":"image/jpeg",
			"name":"rugina",
			"uri":"rugina.jpg"
		}
	],
	"accessors":[
		{
			"bufferView":0,
			"componentType":5126,
			"count":4733,
			"max":[
				0,
				2.5,
				6
			],
			"min":[
				-2.299999952316284,
				0,
				0
			],
			"type":"VEC3"
		},
		{
			"bufferView":1,
			"componentType":5126,
			"count":4733,
			"type":"VEC3"
		},
		{
			"bufferView":2,
			"componentType":5126,
			"count":4733,
			"type":"VEC2"
		},
		{
			"bufferView":3,
			"componentType":5123,
			"count":11367,
			"type":"SCALAR"
		},
		{
			"bufferView":4,
			"componentType":5126,
			"count":1036,
			"max":[
				-0.5350086688995361,
				2.461768865585327,
				0.0498979315161705
			],
			"min":[
				-1.7649811506271362,
				0.03823983669281006,
				-0.01911117509007454
			],
			"type":"VEC3"
		},
		{
			"bufferView":5,
			"componentType":5126,
			"count":1036,
			"type":"VEC3"
		},
		{
			"bufferView":6,
			"componentType":5126,
			"count":1036,
			"type":"VEC2"
		},
		{
			"bufferView":7,
			"componentType":5123,
			"count":1776,
			"type":"SCALAR"
		},
		{
			"bufferView":8,
			"componentType":5126,
			"count":112,
			"max":[
				-0.537205696105957,
				0.9839947819709778,
				0.021445825695991516
			],
			"min":[
				-1.7627842426300049,
				0.954926609992981,
				0.009340534918010235
			],
			"type":"VEC3"
		},
		{
			"bufferView":9,
			"componentType":5126,
			"count":112,
			"type":"VEC3"
		},
		{
			"bufferView":10,
			"componentType":5126,
			"count":112,
			"type":"VEC2"
		},
		{
			"bufferView":11,
			"componentType":5123,
			"count":168,
			"type":"SCALAR"
		}
	],
	"bufferViews":[
		{
			"buffer":0,
			"byteLength":56796,
			"byteOffset":0,
			"target":34962
		},
		{
			"buffer":0,
			"byteLength":56796,
			"byteOffset":56796,
			"target":34962
		},
		{
			"buffer":0,
			"byteLength":37864,
			"byteOffset":113592,
			"target":34962
		},
		{
			"buffer":0,
			"byteLength":22734,
			"byteOffset":151456,
			"target":34963
		},
		{
			"buffer":0,
			"byteLength":12432,
			"byteOffset":174192,
			"target":34962
		},
		{
			"buffer":0,
			"byteLength":12432,
			"byteOffset":186624,
			"target":34962
		},
		{
			"buffer":0,
			"byteLength":8288,
			"byteOffset":199056,
			"target":34962
		},
		{
			"buffer":0,
			"byteLength":3552,
			"byteOffset":207344,
			"target":34963
		},
		{
			"buffer":0,
			"byteLength":1344,
			"byteOffset":210896,
			"target":34962
		},
		{
			"buffer":0,
			"byteLength":1344,
			"byteOffset":212240,
			"target":34962
		},
		{
			"buffer":0,
			"byteLength":896,
			"byteOffset":213584,
			"target":34962
		},
		{
			"buffer":0,
			"byteLength":336,
			"byteOffset":214480,
			"target":34963
		}
	],
	"samplers":[
		{
			"magFilter":9729,
			"minFilter":9987
		}
	],
	"buffers":[
		{
			"byteLength":214816,
			"uri":"container.bin"
		}
	]
}
