{
	"asset":{
		"generator":"Khronos glTF Blender I/O v4.0.44",
		"version":"2.0"
	},
	"scene":0,
	"scenes":[
		{
			"name":"Scene",
			"nodes":[
				0
			]
		}
	],
	"nodes":[
		{
			"mesh":0,
			"name":"boat",
			"rotation":[
				-0.4771299362182617,
				0,
				0,
				0.8788327574729919
			],
			"scale":[
				5.141111850738525,
				4.471902847290039,
				4.226959705352783
			],
			"translation":[
				25.14741325378418,
				-32.25432205200195,
				28.693952560424805
			]
		}
	],
	"materials":[
		{
			"doubleSided":true,
			"name":"Material",
			"pbrMetallicRoughness":{
				"baseColorTexture":{
					"index":0
				},
				"metallicFactor":0,
				"roughnessFactor":0.5
			}
		}
	],
	"meshes":[
		{
			"name":"boat",
			"primitives":[
				{
					"attributes":{
						"POSITION":0,
						"NORMAL":1,
						"TEXCOORD_0":2
					},
					"indices":3,
					"material":0
				},
				{
					"attributes":{
						"POSITION":4,
						"NORMAL":5,
						"TEXCOORD_0":6
					},
					"indices":7
				},
				{
					"attributes":{
						"POSITION":8,
						"NORMAL":9,
						"TEXCOORD_0":10
					},
					"indices":11
				}
			]
		}
	],
	"textures":[
		{
			"sampler":0,
			"source":0
		}
	],
	"images":[
		{
			"mimeType":"image/png",
			"name":"wood",
			"uri":"wood.png"
		}
	],
	"accessors":[
		{
			"bufferView":0,
			"componentType":5126,
			"count":8130,
			"max":[
				1.8800830841064453,
				0.3201538026332855,
				1.407402515411377
			],
			"min":[
				-1.1893445253372192,
				-0.3880513310432434,
				-1.536104679107666
			],
			"type":"VEC3"
		},
		{
			"bufferView":1,
			"componentType":5126,
			"count":8130,
			"type":"VEC3"
		},
		{
			"bufferView":2,
			"componentType":5126,
			"count":8130,
			"type":"VEC2"
		},
		{
			"bufferView":3,
			"componentType":5123,
			"count":36036,
			"type":"SCALAR"
		},
		{
			"bufferView":4,
			"componentType":5126,
			"count":7596,
			"max":[
				1.906057596206665,
				0.2981809675693512,
				0.5835175514221191
			],
			"min":[
				-1.1558077335357666,
				-0.2489229440689087,
				-0.5741022825241089
			],
			"type":"VEC3"
		},
		{
			"bufferView":5,
			"componentType":5126,
			"count":7596,
			"type":"VEC3"
		},
		{
			"bufferView":6,
			"componentType":5126,
			"count":7596,
			"type":"VEC2"
		},
		{
			"bufferView":7,
			"componentType":5123,
			"count":28920,
			"type":"SCALAR"
		},
		{
			"bufferView":8,
			"componentType":5126,
			"count":4319,
			"max":[
				0.15804427862167358,
				0.17779219150543213,
				1.4211506843566895
			],
			"min":[
				-0.41969946026802063,
				-0.3966221809387207,
				-1.5582809448242188
			],
			"type":"VEC3"
		},
		{
			"bufferView":9,
			"componentType":5126,
			"count":4319,
			"type":"VEC3"
		},
		{
			"bufferView":10,
			"componentType":5126,
			"count":4319,
			"type":"VEC2"
		},
		{
			"bufferView":11,
			"componentType":5123,
			"count":11124,
			"type":"SCALAR"
		}
	],
	"bufferViews":[
		{
			"buffer":0,
			"byteLength":97560,
			"byteOffset":0,
			"target":34962
		},
		{
			"buffer":0,
			"byteLength":97560,
			"byteOffset":97560,
			"target":34962
		},
		{
			"buffer":0,
			"byteLength":65040,
			"byteOffset":195120,
			"target":34962
		},
		{
			"buffer":0,
			"byteLength":72072,
			"byteOffset":260160,
			"target":34963
		},
		{
			"buffer":0,
			"byteLength":91152,
			"byteOffset":332232,
			"target":34962
		},
		{
			"buffer":0,
			"byteLength":91152,
			"byteOffset":423384,
			"target":34962
		},
		{
			"buffer":0,
			"byteLength":60768,
			"byteOffset":514536,
			"target":34962
		},
		{
			"buffer":0,
			"byteLength":57840,
			"byteOffset":575304,
			"target":34963
		},
		{
			"buffer":0,
			"byteLength":51828,
			"byteOffset":633144,
			"target":34962
		},
		{
			"buffer":0,
			"byteLength":51828,
			"byteOffset":684972,
			"target":34962
		},
		{
			"buffer":0,
			"byteLength":34552,
			"byteOffset":736800,
			"target":34962
		},
		{
			"buffer":0,
			"byteLength":22248,
			"byteOffset":771352,
			"target":34963
		}
	],
	"samplers":[
		{
			"magFilter":9729,
			"minFilter":9987
		}
	],
	"buffers":[
		{
			"byteLength":793600,
			"uri":"boat.bin"
		}
	]
}
