{
	"asset":{
		"generator":"Khronos glTF Blender I/O v4.0.44",
		"version":"2.0"
	},
	"extensionsUsed":[
		"KHR_materials_specular",
		"KHR_materials_ior"
	],
	"scene":0,
	"scenes":[
		{
			"name":"Scene",
			"nodes":[
				0
			]
		}
	],
	"nodes":[
		{
			"mesh":0,
			"name":"Circle.001",
			"rotation":[
				0.7071068286895752,
				0,
				0,
				0.7071068286895752
			]
		}
	],
	"materials":[
		{
			"doubleSided":true,
			"extensions":{
				"KHR_materials_specular":{
					"specularFactor":0
				},
				"KHR_materials_ior":{
					"ior":1.4500000476837158
				}
			},
			"name":"Material.001",
			"pbrMetallicRoughness":{
				"metallicFactor":0
			}
		}
	],
	"meshes":[
		{
			"name":"Circle.001",
			"primitives":[
				{
					"attributes":{
						"POSITION":0,
						"NORMAL":1
					},
					"indices":2,
					"material":0
				}
			]
		}
	],
	"accessors":[
		{
			"bufferView":0,
			"componentType":5126,
			"count":2828,
			"max":[
				1.3910510540008545,
				11.531817436218262,
				1.3624180555343628
			],
			"min":[
				-1.3885899782180786,
				-11.885122299194336,
				-2.1434431076049805
			],
			"type":"VEC3"
		},
		{
			"bufferView":1,
			"componentType":5126,
			"count":2828,
			"type":"VEC3"
		},
		{
			"bufferView":2,
			"componentType":5123,
			"count":16332,
			"type":"SCALAR"
		}
	],
	"bufferViews":[
		{
			"buffer":0,
			"byteLength":33936,
			"byteOffset":0,
			"target":34962
		},
		{
			"buffer":0,
			"byteLength":33936,
			"byteOffset":33936,
			"target":34962
		},
		{
			"buffer":0,
			"byteLength":32664,
			"byteOffset":67872,
			"target":34963
		}
	],
	"buffers":[
		{
			"byteLength":100536,
			"uri":"submarinfinal.bin"
		}
	]
}
