{
	"asset":{
		"generator":"Khronos glTF Blender I/O v4.0.44",
		"version":"2.0"
	},
	"scene":0,
	"scenes":[
		{
			"name":"Scene",
			"nodes":[
				0,
				1
			]
		}
	],
	"nodes":[
		{
			"mesh":0,
			"name":"Circle.001"
		},
		{
			"name":"Circle",
			"rotation":[
				0.7071068286895752,
				0,
				0,
				0.7071068286895752
			],
			"scale":[
				1.3384073972702026,
				1.3384073972702026,
				1.3384073972702026
			],
			"translation":[
				0,
				0,
				9
			]
		}
	],
	"animations":[
		{
			"channels":[
				{
					"sampler":0,
					"target":{
						"node":1,
						"path":"translation"
					}
				},
				{
					"sampler":1,
					"target":{
						"node":1,
						"path":"rotation"
					}
				},
				{
					"sampler":2,
					"target":{
						"node":1,
						"path":"scale"
					}
				}
			],
			"name":"CircleAction",
			"samplers":[
				{
					"input":3,
					"interpolation":"LINEAR",
					"output":4
				},
				{
					"input":3,
					"interpolation":"LINEAR",
					"output":5
				},
				{
					"input":3,
					"interpolation":"LINEAR",
					"output":6
				}
			]
		}
	],
	"meshes":[
		{
			"name":"Circle.001",
			"primitives":[
				{
					"attributes":{
						"POSITION":0,
						"NORMAL":1
					},
					"indices":2
				}
			]
		}
	],
	"accessors":[
		{
			"bufferView":0,
			"componentType":5126,
			"count":2828,
			"max":[
				1.3910508155822754,
				2.1434426307678223,
				11.531817436218262
			],
			"min":[
				-1.3885902166366577,
				-1.3624179363250732,
				-11.885122299194336
			],
			"type":"VEC3"
		},
		{
			"bufferView":1,
			"componentType":5126,
			"count":2828,
			"type":"VEC3"
		},
		{
			"bufferView":2,
			"componentType":5123,
			"count":16332,
			"type":"SCALAR"
		},
		{
			"bufferView":3,
			"componentType":5126,
			"count":1,
			"max":[
				0.041666666666666664
			],
			"min":[
				0.041666666666666664
			],
			"type":"SCALAR"
		},
		{
			"bufferView":4,
			"componentType":5126,
			"count":1,
			"type":"VEC3"
		},
		{
			"bufferView":5,
			"componentType":5126,
			"count":1,
			"type":"VEC4"
		},
		{
			"bufferView":6,
			"componentType":5126,
			"count":1,
			"type":"VEC3"
		}
	],
	"bufferViews":[
		{
			"buffer":0,
			"byteLength":33936,
			"byteOffset":0,
			"target":34962
		},
		{
			"buffer":0,
			"byteLength":33936,
			"byteOffset":33936,
			"target":34962
		},
		{
			"buffer":0,
			"byteLength":32664,
			"byteOffset":67872,
			"target":34963
		},
		{
			"buffer":0,
			"byteLength":4,
			"byteOffset":100536
		},
		{
			"buffer":0,
			"byteLength":12,
			"byteOffset":100540
		},
		{
			"buffer":0,
			"byteLength":16,
			"byteOffset":100552
		},
		{
			"buffer":0,
			"byteLength":12,
			"byteOffset":100568
		}
	],
	"buffers":[
		{
			"byteLength":100580,
			"uri":"AkulaClassAtackSubmarine.bin"
		}
	]
}
