{
	"asset":{
		"generator":"Khronos glTF Blender I/O v4.0.44",
		"version":"2.0"
	},
	"scene":0,
	"scenes":[
		{
			"name":"Scene",
			"nodes":[
				1
			]
		}
	],
	"nodes":[
		{
			"mesh":0,
			"name":"body",
			"rotation":[
				-0.5132803916931152,
				0.4846375286579132,
				-0.4862588346004486,
				0.5149972438812256
			],
			"scale":[
				0.02499999850988388,
				0.02500000037252903,
				0.02500000037252903
			],
			"translation":[
				-0.7079353332519531,
				-6.1161208152771,
				-18.12188148498535
			]
		},
		{
			"children":[
				0
			],
			"name":"submarine",
			"rotation":[
				0.70710688829422,
				0,
				0,
				0.7071066498756409
			],
			"scale":[
				0.009999999776482582,
				0.009999998845160007,
				0.009999998845160007
			],
			"translation":[
				0.30450212955474854,
				0.31607508659362793,
				0.13457070291042328
			]
		}
	],
	"materials":[
		{
			"doubleSided":true,
			"name":"Material.002",
			"pbrMetallicRoughness":{
				"baseColorTexture":{
					"index":0
				},
				"metallicFactor":0,
				"roughnessFactor":0.5
			}
		}
	],
	"meshes":[
		{
			"name":"Mesh.003",
			"primitives":[
				{
					"attributes":{
						"POSITION":0,
						"NORMAL":1,
						"TEXCOORD_0":2
					},
					"indices":3,
					"material":0
				}
			]
		}
	],
	"textures":[
		{
			"sampler":0,
			"source":0
		}
	],
	"images":[
		{
			"mimeType":"image/jpeg",
			"name":"grunge-wall-texture",
			"uri":"grunge-wall-texture.jpg"
		}
	],
	"accessors":[
		{
			"bufferView":0,
			"componentType":5126,
			"count":2358,
			"max":[
				105.54750061035156,
				119.57160186767578,
				112.00740051269531
			],
			"min":[
				-105.54750061035156,
				-439.6820983886719,
				-106.55609893798828
			],
			"type":"VEC3"
		},
		{
			"bufferView":1,
			"componentType":5126,
			"count":2358,
			"type":"VEC3"
		},
		{
			"bufferView":2,
			"componentType":5126,
			"count":2358,
			"type":"VEC2"
		},
		{
			"bufferView":3,
			"componentType":5123,
			"count":4488,
			"type":"SCALAR"
		}
	],
	"bufferViews":[
		{
			"buffer":0,
			"byteLength":28296,
			"byteOffset":0,
			"target":34962
		},
		{
			"buffer":0,
			"byteLength":28296,
			"byteOffset":28296,
			"target":34962
		},
		{
			"buffer":0,
			"byteLength":18864,
			"byteOffset":56592,
			"target":34962
		},
		{
			"buffer":0,
			"byteLength":8976,
			"byteOffset":75456,
			"target":34963
		}
	],
	"samplers":[
		{
			"magFilter":9729,
			"minFilter":9987
		}
	],
	"buffers":[
		{
			"byteLength":84432,
			"uri":"submarinul.bin"
		}
	]
}
