{
	"asset":{
		"generator":"Khronos glTF Blender I/O v4.0.44",
		"version":"2.0"
	},
	"scene":0,
	"scenes":[
		{
			"name":"Scene",
			"nodes":[
				0
			]
		}
	],
	"nodes":[
		{
			"mesh":0,
			"name":"body",
			"rotation":[
				0.21195834875106812,
				-0.3351617157459259,
				0.9101331233978271,
				0.11999161541461945
			],
			"scale":[
				0.0041650221683084965,
				0.0041650221683084965,
				0.0041650221683084965
			],
			"translation":[
				0,
				-10.815155982971191,
				0
			]
		}
	],
	"materials":[
		{
			"doubleSided":true,
			"name":"Material.001",
			"pbrMetallicRoughness":{
				"baseColorTexture":{
					"index":0
				},
				"metallicFactor":0,
				"roughnessFactor":0.5
			}
		}
	],
	"meshes":[
		{
			"name":"body",
			"primitives":[
				{
					"attributes":{
						"POSITION":0,
						"NORMAL":1,
						"TEXCOORD_0":2
					},
					"indices":3,
					"material":0
				}
			]
		}
	],
	"textures":[
		{
			"sampler":0,
			"source":0
		}
	],
	"images":[
		{
			"mimeType":"image/jpeg",
			"name":"turtletex",
			"uri":"turtletex.jpg"
		}
	],
	"accessors":[
		{
			"bufferView":0,
			"componentType":5126,
			"count":80998,
			"max":[
				177.5999298095703,
				140.40185546875,
				51.10432434082031
			],
			"min":[
				-177.60008239746094,
				-226.3981475830078,
				-69.49567413330078
			],
			"type":"VEC3"
		},
		{
			"bufferView":1,
			"componentType":5126,
			"count":80998,
			"type":"VEC3"
		},
		{
			"bufferView":2,
			"componentType":5126,
			"count":80998,
			"type":"VEC2"
		},
		{
			"bufferView":3,
			"componentType":5125,
			"count":318480,
			"type":"SCALAR"
		}
	],
	"bufferViews":[
		{
			"buffer":0,
			"byteLength":971976,
			"byteOffset":0,
			"target":34962
		},
		{
			"buffer":0,
			"byteLength":971976,
			"byteOffset":971976,
			"target":34962
		},
		{
			"buffer":0,
			"byteLength":647984,
			"byteOffset":1943952,
			"target":34962
		},
		{
			"buffer":0,
			"byteLength":1273920,
			"byteOffset":2591936,
			"target":34963
		}
	],
	"samplers":[
		{
			"magFilter":9729,
			"minFilter":9987
		}
	],
	"buffers":[
		{
			"byteLength":3865856,
			"uri":"turtle.bin"
		}
	]
}
